<svg width="40" height="40" viewBox="0 0 40 40" fill="none" xmlns="http://www.w3.org/2000/svg">
<path d="M6.5119 35.3505C6.5119 35.9755 6.21992 36.3084 5.42851 36.3084H3.61133V32.7893H5.35936C6.17638 32.7893 6.45811 33.112 6.45811 33.7062C6.45811 34.1596 6.28651 34.367 5.80244 34.4874L5.71152 34.513L5.7922 34.5284C6.34286 34.6526 6.5119 34.8549 6.5119 35.3505ZM4.445 34.262H5.18135C5.47333 34.262 5.60523 34.1339 5.60523 33.833C5.60523 33.5321 5.48486 33.3899 5.18135 33.3899H4.44757L4.445 34.262ZM5.6603 35.2647C5.6603 34.942 5.53223 34.8063 5.23129 34.8063H4.44757V35.7142H5.23129C5.54632 35.7117 5.66286 35.581 5.66286 35.2634L5.6603 35.2647ZM7.08433 35.1635V32.7893H7.96154V35.1328C7.96154 35.517 8.13826 35.6668 8.61209 35.6668C9.08591 35.6668 9.26264 35.5208 9.26264 35.1328V32.7893H10.1399V35.1584C10.1399 35.9857 9.66091 36.3635 8.61209 36.3635C7.56328 36.3635 7.08689 35.9908 7.08689 35.1623L7.08433 35.1635ZM14.2557 32.7944V36.3084H13.1877L11.6932 33.7664V36.3071H10.8775V32.7893H11.9455L13.4374 35.33V32.7893L14.2557 32.7944ZM14.978 32.7944H16.5454C17.7748 32.7944 18.0975 33.299 18.0975 34.5489C18.0975 35.7641 17.7441 36.3084 16.5454 36.3084H14.9767L14.978 32.7944ZM16.5147 35.6374C17.0269 35.6374 17.1947 35.3697 17.1947 34.5489C17.1947 33.728 17.0282 33.4655 16.5147 33.4655H15.8488V35.6425L16.5147 35.6374ZM18.7353 32.7893H21.1953V33.4603H19.6125V34.198H20.9277V34.8588H19.6125V35.6271H21.2312V36.2982H18.7353V32.7893ZM21.7511 36.1701V35.4786C22.1292 35.607 22.526 35.6719 22.9254 35.6707C23.3288 35.6707 23.5055 35.5644 23.5055 35.2865C23.5055 35.0496 23.43 34.9791 23.1073 34.9138L22.522 34.7935C21.9124 34.6654 21.7101 34.4208 21.7101 33.8202C21.7101 33.0518 22.1634 32.7163 23.0765 32.7163C23.4581 32.7129 23.8372 32.778 24.1958 32.9084V33.5935C23.853 33.4709 23.4918 33.4077 23.1277 33.4066C22.6936 33.4066 22.5476 33.5231 22.5476 33.7907C22.5476 34.0174 22.6488 34.0827 22.9318 34.1442L23.5017 34.2646C24.1625 34.4054 24.343 34.627 24.343 35.257C24.343 36.0087 23.8795 36.3507 22.9344 36.3507C22.5325 36.3587 22.1323 36.2976 21.7511 36.1701ZM24.9526 32.7893H25.8298V35.6323H27.3371V36.3033H24.9526V32.7893ZM27.8852 32.7893H28.7624V36.3033H27.8852V32.7893ZM32.3942 34.271V36.1816C32.0011 36.3056 31.591 36.367 31.1789 36.3635C29.9585 36.3635 29.3861 35.8243 29.3861 34.5437C29.3861 33.2631 29.961 32.724 31.1789 32.724C31.5741 32.7177 31.967 32.7845 32.3378 32.9212V33.6012C31.9873 33.4813 31.6198 33.4182 31.2493 33.4142C30.513 33.4142 30.2812 33.7113 30.2812 34.5437C30.2812 35.4107 30.5232 35.6963 31.2186 35.6963C31.3719 35.6964 31.5251 35.6862 31.6771 35.6655V34.8793H31.0265V34.2748L32.3942 34.271ZM35.2589 35.5669H33.8861L33.6389 36.3033H32.7643L34.0193 32.7893H35.1385L36.3884 36.3033H35.5061L35.2589 35.5669ZM34.5789 33.3438L34.0667 34.9318H35.0796L34.5789 33.3438Z" fill="white"/>
<path d="M36.3353 3.63635H3.66455V29.7735H36.3353V3.63635Z" fill="#D20515"/>
<path d="M30.5985 17.3952C30.6164 17.4605 30.5588 17.5053 30.441 17.5911L30.3693 17.6308L30.3936 17.6782C30.4103 17.7089 30.3821 17.755 30.3322 17.7793L30.2246 17.8331C30.1759 17.8587 30.1221 17.8536 30.1068 17.8228L30.0837 17.7793L29.948 17.8459L29.9697 17.892C29.9851 17.9227 29.9556 17.9688 29.9044 17.9919L29.7956 18.0431C29.7456 18.0661 29.6931 18.0597 29.6777 18.0277L29.6585 17.9867C29.2398 18.1839 28.7711 18.3927 28.2883 18.6168L28.3152 18.6782C28.3318 18.709 28.3011 18.7538 28.2524 18.7769L28.1423 18.8281C28.0923 18.8511 28.0386 18.8434 28.0258 18.8127L27.9963 18.7512L27.8413 18.8268L27.8708 18.8895C27.8849 18.9216 27.8567 18.9651 27.8055 18.9894L27.6966 19.0394C27.6454 19.0624 27.5942 19.056 27.5788 19.0253L27.5506 18.9651C27.3317 19.0522 27.0922 19.0932 26.918 18.764C26.8438 18.6129 26.8399 18.2659 26.7823 18.0815C26.7584 18.0218 26.7049 17.979 26.6414 17.9688C24.5131 17.5603 23.7921 18.0149 22.4282 17.6781C21.9992 17.5731 21.7662 17.1787 21.2373 17.1723C20.0847 17.1377 19.7454 17.1543 18.4955 17.1069C18.4417 17.2875 18.4353 17.3272 18.4353 17.3272L14.0428 17.3067L14.7139 17.6358L14.929 19.5734C14.929 19.5734 14.751 19.6246 14.6998 19.631C14.742 20.0152 14.783 20.5402 14.8048 21.0115C14.824 21.4341 14.8458 21.8746 14.8419 22.1551C14.8433 22.3376 14.7992 22.5175 14.7139 22.6788C14.6302 22.8195 14.5181 22.9412 14.3847 23.0361C14.345 23.0656 14.1747 23.1808 13.9788 23.2922C13.7829 23.4037 13.5472 23.5317 13.4281 23.5881C13.4461 23.6396 13.467 23.6901 13.4909 23.7392C10.8259 25.03 7.5143 25.4706 6.44243 27.5221C6.31437 27.7603 5.88281 27.6361 5.87001 27.3799C5.87001 27.2621 5.87001 27.0713 5.87001 26.965H5.83158C5.797 26.965 5.77012 26.9176 5.77267 26.8613V26.7409C5.77267 26.6859 5.80597 26.6423 5.83927 26.6436H5.88537C5.89895 26.5251 5.92164 26.4078 5.95324 26.2927L5.91226 26.2786C5.88025 26.2671 5.87 26.2146 5.88793 26.1621L5.92763 26.0494C5.94684 25.9969 5.98654 25.9649 6.02111 25.9751L6.0608 25.9892C6.25161 25.5448 6.61915 25.3489 6.79075 24.9276L6.76386 24.9173C6.72927 24.9045 6.71903 24.8533 6.73824 24.8008L6.77794 24.6868C6.79715 24.6343 6.83813 24.6023 6.87142 24.6138L6.90087 24.6241C6.92648 24.5626 6.95594 24.496 6.98924 24.4282L6.95338 24.4038C6.92264 24.3846 6.92264 24.3321 6.95338 24.2847L7.01869 24.1836C7.04686 24.1375 7.09425 24.1144 7.1237 24.1336L7.13906 24.1426H7.15443C7.1634 24.1426 7.16725 24.1426 7.1762 24.1323C7.1928 24.1139 7.21032 24.0964 7.22871 24.0798C7.3962 23.9561 7.62395 23.953 7.79474 24.0722C7.9625 24.1733 8.61817 24.5473 9.24951 23.98C10.2906 23.0451 11.5085 21.776 12.4241 21.7325C12.1757 21.1972 11.7441 20.0754 11.6955 19.6618L11.3984 19.599C11.2383 19.2545 10.849 17.6627 10.7389 16.4666C10.7389 16.4666 10.6108 15.1771 10.7389 14.7237C10.6684 14.7161 10.5391 14.8223 10.5032 14.8236C10.3355 14.4126 10.8797 10.9383 11.4189 9.9266L12.2448 9.59749C12.159 9.58718 11.5623 9.56035 9.99226 9.43229C9.10992 10.2122 8.09696 11.0497 7.58344 11.5043C7.49636 11.5683 7.35037 12.0652 7.35037 12.0652C7.35037 12.0652 7.09425 12.2932 6.84965 12.4609C6.53206 12.6837 5.75474 12.8553 5.5857 12.589C5.54727 12.5237 5.55368 12.4955 5.5857 12.4609C5.70607 12.3329 6.16069 12.1177 6.31436 11.8296C6.06593 11.9576 5.78931 12.0857 5.57289 12.0639C5.47813 12.0639 5.42946 11.827 5.55112 11.7848C5.88151 11.6452 6.14276 11.585 6.33741 11.3109C6.53206 11.0369 6.75233 10.8717 7.05199 10.8653C7.05199 10.8653 8.51187 8.95847 9.37244 8.04796C9.61064 7.79952 10.0524 7.88148 10.0524 7.88148L10.1267 7.59206C10.1267 7.59206 13.0721 7.23989 14.45 7.69451C14.418 6.86084 14.792 5.75311 16.0969 5.75311C16.7679 5.75311 17.7553 6.34604 17.8897 7.06574C17.9307 7.28728 17.8027 7.43455 17.7348 7.715C17.6183 8.13888 17.7809 8.61142 17.7348 8.75869C17.6964 8.88035 17.5594 8.87011 17.4403 9.03531C17.336 9.19818 17.2456 9.36953 17.17 9.54755L16.992 9.9471L16.0726 9.8805C15.7371 10.6066 15.0481 12.0857 14.8048 13.552C15.527 13.6135 18.8003 14.0873 18.8003 14.0873L18.8797 14.3537C18.8797 14.3537 20.2589 14.5189 21.3871 15.0567C21.6432 15.1182 22.2733 15.0234 22.6894 15.2142C22.7176 15.1976 22.7868 15.1271 22.8175 15.1079C24.2889 15.5613 25.5068 16.3322 26.9244 16.6754C26.9244 16.6754 27.5878 16.8367 27.8106 16.8803C28.1866 16.9533 28.5668 17.0021 28.949 17.0263C29.4037 17.0621 29.6559 17.0557 29.9876 17.0749C30.2232 17.089 30.5101 17.0493 30.6036 17.3925M32.7102 12.9181C31.708 12.916 30.8939 13.7267 30.8917 14.7289C30.8897 15.7311 31.7003 16.5452 32.7025 16.5473C33.7047 16.5494 34.5188 15.7387 34.521 14.7366C34.521 14.7352 34.521 14.734 34.521 14.7327C34.5195 13.731 33.7067 12.9199 32.7051 12.9206L32.7102 12.9181Z" fill="white"/>
</svg>
