<svg width="26" height="26" viewBox="0 0 26 26" fill="none" xmlns="http://www.w3.org/2000/svg">
<path d="M12.9511 14.3267C15.7378 15.0955 17.8156 15.4582 17.8156 15.4582C16.6202 14.2624 15.5506 13.0327 14.6247 11.8698C16.2421 9.58264 17.5162 7.99952 17.5162 7.99952C15.8006 8.37958 14.1788 8.84427 12.7263 9.32153C11.3462 7.33948 10.5885 5.94446 10.5885 5.94446C10.1857 7.43232 9.99134 8.92212 9.92606 10.3215C7.62053 11.2146 6.17957 11.9443 6.17957 11.9443C7.42614 12.5061 8.72059 12.9965 9.97393 13.4186C10.177 16.1095 10.721 17.9774 10.721 17.9774C11.4202 16.7294 12.1886 15.4882 12.9511 14.3267Z" fill="white"/>
<path d="M25.6712 13.6207C25.2921 14.214 24.7123 14.6371 24.0344 14.9349C23.9416 13.0317 23.6505 11.3475 23.6505 11.3475C23.0717 12.9113 22.4566 14.2991 21.8638 15.4968C19.8208 15.7589 17.8156 15.4581 17.8156 15.4581C18.9151 16.7772 19.7696 17.5596 20.461 18.0876C19.4267 19.8313 18.6777 20.7621 18.6777 20.7621C20.1235 20.4314 21.2729 19.8821 22.1873 19.2312C22.5615 19.488 22.8836 19.7747 23.2017 20.2602C23.2017 20.2602 23.7917 19.4237 23.9938 17.4861C25.4546 15.5756 25.6712 13.6207 25.6712 13.6207Z" fill="white"/>
<path d="M25.0039 8.34521C24.3526 6.88055 23.4145 5.77566 22.3914 4.94348C21.519 3.11085 20.5147 2.26465 20.5147 2.26465C20.5993 2.6863 20.535 3.16356 20.3784 3.65629C18.2058 2.57943 16.2242 2.42954 16.2242 2.42954C17.4863 3.25688 18.6067 4.28247 19.5689 5.33998C18.6826 6.78239 17.5168 7.99947 17.5168 7.99947C19.0622 7.65132 20.3058 7.50481 21.301 7.47821C22.828 9.58114 23.6505 11.3475 23.6505 11.3475C23.68 9.92591 23.5378 8.6861 23.3004 7.61602C24.5934 7.86263 25.0039 8.34521 25.0039 8.34521Z" fill="white"/>
<path d="M16.2243 2.42959C15.1702 1.89962 14.1615 1.5302 13.2234 1.27634C14.4178 0.266214 15.5285 0.0104191 15.5285 0.0104191C13.6112 -0.0654972 11.9624 0.28072 10.5823 0.81165C8.52147 0.647246 7.20865 1.00458 7.20865 1.00458C7.51715 1.23717 7.77778 1.65302 8.04421 2.1501C6.30249 3.34252 5.41809 4.58522 5.41809 4.58522C6.46786 4.06396 7.58195 3.66891 8.68007 3.36766C8.79999 3.58767 8.92571 3.8072 9.06352 4.02189C9.79077 5.15435 10.5891 5.94446 10.5891 5.94446C10.8744 4.58716 11.3652 3.53013 11.9295 2.71004C14.3806 2.36914 16.2243 2.42959 16.2243 2.42959Z" fill="white"/>
<path d="M2.99268 6.6103C3.64933 5.9754 4.4496 5.29119 5.41814 4.58522C5.41814 4.58522 4.52455 4.58522 3.58019 4.82554C4.20493 3.31301 4.89784 2.47455 4.89784 2.47455C4.89784 2.47455 0.9207 5.30328 0.165405 10.3868C0.165405 10.3868 0.499533 9.46755 1.63296 8.08123C2.08265 9.08894 2.60053 9.72335 2.60053 9.72335C2.6073 8.56284 2.76445 7.51984 2.99268 6.6103Z" fill="white"/>
<path d="M6.18017 11.9442C4.79965 11.9878 3.717 12.1086 2.8737 12.2629C2.63676 10.7857 2.6005 9.72333 2.6005 9.72333C1.9187 10.7639 1.47723 11.7673 1.20402 12.7015C0.24274 13.0578 0 13.4026 0 13.4026C0.149898 13.9147 0.449696 14.4132 0.82831 14.8803C0.709842 17.0935 1.42597 18.5557 1.42597 18.5557C1.58699 17.7801 1.90806 17.0248 2.31134 16.3189C3.48876 17.2627 4.65507 17.8783 4.65507 17.8783C4.10577 16.8933 3.70104 15.7903 3.40415 14.7227C4.72422 13.0656 6.18017 11.9442 6.18017 11.9442Z" fill="white"/>
<path d="M13.0098 23.2495C13.0098 23.2495 11.8517 22.7872 10.1936 21.853C10.2526 20.8564 10.4064 19.5876 10.7217 17.9774C10.7217 17.9774 9.40401 19.2815 7.69759 20.2921C6.70729 19.6079 5.66622 18.8043 4.65513 17.8783C4.65513 17.8783 5.14738 19.399 6.09561 21.0735C5.19574 21.4101 4.2683 21.5663 3.42017 21.3588C3.42017 21.3588 4.42207 22.6098 7.51239 23.1407C8.36923 24.1576 9.4132 24.9975 10.6317 25.2896C10.6317 25.2896 10.2647 24.8868 10.183 23.3752C11.0258 23.3868 11.9644 23.3496 13.0098 23.2495Z" fill="white"/>
<path d="M18.6115 23.1219C18.877 21.899 18.6778 20.7622 18.6778 20.7622C17.8959 21.8864 17.1275 22.7423 16.4162 23.3941C14.5029 23.4933 13.0097 23.2496 13.0097 23.2496C13.0097 23.2496 13.8636 24.1025 14.8486 24.5948C13.5483 25.3989 12.677 25.4705 12.677 25.4705C18.3688 25.5909 21.7845 21.8748 21.7845 21.8748C20.8252 22.5078 19.7145 22.8946 18.6115 23.1219Z" fill="white"/>
</svg>
