<svg width="279" height="315" viewBox="0 0 279 315" fill="none" xmlns="http://www.w3.org/2000/svg">
<path d="M25.3636 175.28C25.3636 137.483 43.8466 103.935 72.2352 83.1518L64.7006 57.5159C25.8059 82.2711 0 125.761 0 175.282C0 227.702 28.9204 273.361 71.6707 297.197L80.3673 272.874C47.4174 252.835 25.3636 216.586 25.3636 175.28Z" fill="#FF6900"/>
<path d="M214.298 57.5159L206.765 83.1518C235.152 103.935 253.636 137.483 253.636 175.28C253.636 216.586 231.581 252.835 198.631 272.874L207.328 297.197C250.079 273.361 278.998 227.702 278.998 175.282C278.998 125.761 253.193 82.2718 214.298 57.5159Z" fill="#FF6900"/>
<path d="M97.0184 276.104H114.641L135.13 184.172V0L73.0692 26.4844L124.137 200.264L97.0184 276.104Z" fill="white"/>
<path d="M181.694 276.104L154.575 200.264L205.643 26.4844L143.584 0V184.172L164.071 276.104H181.694Z" fill="white"/>
<path d="M92.4831 288.786L83.1344 314.93H195.579L186.229 288.786H92.4831Z" fill="white"/>
<path d="M155.842 276.104L139.355 202.127L122.87 276.104H155.842Z" fill="white"/>
</svg>
