<svg width="39" height="37" viewBox="0 0 39 37" fill="none" xmlns="http://www.w3.org/2000/svg">
<path d="M24.4397 17.991C24.4397 20.8586 22.0911 23.2082 19.2226 23.2082C16.355 23.2082 14.0063 20.8586 14.0063 17.991C14.0063 15.1225 16.355 12.7739 19.2226 12.7739C22.0911 12.7739 24.4397 15.1225 24.4397 17.991Z" fill="white"/>
<path d="M29.9287 5.00006L25.9247 11.4106C27.7507 14.0268 29.258 16.4968 30.6001 19.1699C28.8444 22.6123 26.8713 25.9627 24.5379 29.0483C21.3212 29.3215 18.0828 29.2882 14.8615 29.1214L10.8311 35.5736C17.0025 36.1551 22.5885 36.2954 28.3284 35.4152C32.4395 30.3774 35.6173 25.1688 38.4459 19.2088C36.2594 14.0704 33.2439 9.39283 29.9287 5.00006Z" fill="#CDFB0A"/>
<path d="M7.84562 16.8127C9.60237 13.374 11.5601 10.0057 13.9088 6.93426C17.1245 6.66483 20.3647 6.6942 23.5862 6.86021L27.6158 0.408023C21.8172 -0.197137 16.2672 -0.116631 10.1185 0.566452C6.19615 5.28657 2.55648 11.161 0 16.8088C2.23672 21.934 5.03504 26.4075 8.51821 30.9824L12.5231 24.572C10.7112 21.8959 9.19646 19.4848 7.84562 16.8127Z" fill="#CDFB0A"/>
</svg>
