<svg width="95" height="25" viewBox="0 0 95 25" fill="none" xmlns="http://www.w3.org/2000/svg">
<g clip-path="url(#clip0_105_102)">
<path d="M0.151123 14.5244L9.97533 24.3486C4.95843 23.5006 0.999151 19.5413 0.151123 14.5244Z" fill="#5E6AD2"/>
<path d="M0 11.8573L12.6425 24.4998C13.3943 24.4596 14.1278 24.3503 14.8367 24.178L0.321746 9.66309C0.149505 10.372 0.0401738 11.1054 0 11.8573Z" fill="#5E6AD2"/>
<path d="M0.950989 7.77639L16.7234 23.5489C17.2979 23.3023 17.8493 23.0122 18.3734 22.6828L1.81705 6.12646C1.48761 6.65056 1.19754 7.20193 0.950989 7.77639Z" fill="#5E6AD2"/>
<path d="M2.88562 4.67926C5.08788 2.12035 8.35038 0.5 11.9913 0.5C18.6235 0.5 24 5.87645 24 12.5087C24 16.1496 22.3797 19.4121 19.8207 21.6144L2.88562 4.67926Z" fill="#5E6AD2"/>
</g>
<path d="M36 17.5785V4.48762H38.7678V15.2966H44.38V17.5785H36Z" fill="white"/>
<path d="M46.2518 17.5785V7.76034H48.9748V17.5785H46.2518ZM47.6197 6.49472C47.2148 6.49472 46.8675 6.36048 46.5777 6.09202C46.2922 5.81929 46.1495 5.4933 46.1495 5.11404C46.1495 4.73904 46.2922 4.4173 46.5777 4.14884C46.8675 3.87611 47.2148 3.73975 47.6197 3.73975C48.0245 3.73975 48.3697 3.87611 48.6552 4.14884C48.9449 4.4173 49.0898 4.73904 49.0898 5.11404C49.0898 5.4933 48.9449 5.81929 48.6552 6.09202C48.3697 6.36048 48.0245 6.49472 47.6197 6.49472Z" fill="white"/>
<path d="M53.9691 11.9024V17.5785H51.2461V7.76034H53.8412V9.49259H53.9563C54.1736 8.92156 54.538 8.46986 55.0493 8.13747C55.5607 7.80083 56.1807 7.6325 56.9094 7.6325C57.5912 7.6325 58.1857 7.78165 58.6928 8.07995C59.1999 8.37824 59.5941 8.80438 59.8753 9.35835C60.1566 9.90807 60.2972 10.5643 60.2972 11.3271V17.5785H57.5742V11.8129C57.5784 11.212 57.425 10.7433 57.1139 10.4067C56.8029 10.0657 56.3746 9.89529 55.8291 9.89529C55.4627 9.89529 55.1388 9.97412 54.8576 10.1318C54.5806 10.2895 54.3632 10.5196 54.2056 10.8221C54.0522 11.1204 53.9733 11.4805 53.9691 11.9024Z" fill="white"/>
<path d="M65.0006 14.7532L65.007 11.4869H65.4033L68.5482 7.76034H71.6739L67.4488 12.695H66.8032L65.0006 14.7532ZM62.5333 17.5785V4.48762H65.2563V17.5785H62.5333ZM68.6697 17.5785L65.7805 13.3022L67.5958 11.3782L71.8593 17.5785H68.6697Z" fill="white"/>
<path d="M73.0999 17.5785V7.76034H75.8229V17.5785H73.0999ZM74.4678 6.49472C74.0629 6.49472 73.7156 6.36048 73.4259 6.09202C73.1404 5.81929 72.9976 5.4933 72.9976 5.11404C72.9976 4.73904 73.1404 4.4173 73.4259 4.14884C73.7156 3.87611 74.0629 3.73975 74.4678 3.73975C74.8726 3.73975 75.2178 3.87611 75.5033 4.14884C75.7931 4.4173 75.9379 4.73904 75.9379 5.11404C75.9379 5.4933 75.7931 5.81929 75.5033 6.09202C75.2178 6.36048 74.8726 6.49472 74.4678 6.49472Z" fill="white"/>
<path d="M83.374 7.76034V9.8058H77.3143V7.76034H83.374ZM78.7014 17.5785V7.05083C78.7014 6.33918 78.8399 5.74898 79.1169 5.28023C79.3982 4.81148 79.7817 4.45992 80.2675 4.22554C80.7533 3.99117 81.3051 3.87398 81.923 3.87398C82.3406 3.87398 82.722 3.90594 83.0672 3.96986C83.4166 4.03378 83.6766 4.09131 83.847 4.14245L83.3612 6.1879C83.2547 6.15381 83.1226 6.12185 82.9649 6.09202C82.8115 6.06219 82.6538 6.04728 82.4919 6.04728C82.0913 6.04728 81.8122 6.14103 81.6545 6.32853C81.4969 6.51176 81.418 6.76958 81.418 7.10196V17.5785H78.7014Z" fill="white"/>
<path d="M86.8086 21.2603C86.4635 21.2603 86.1396 21.2326 85.8371 21.1772C85.5388 21.1261 85.2916 21.0601 85.0956 20.9791L85.7092 18.9464C86.0288 19.0444 86.3165 19.0977 86.5721 19.1062C86.8321 19.1147 87.0558 19.0551 87.2433 18.9272C87.4351 18.7994 87.5906 18.5821 87.7099 18.2753L87.8697 17.8598L84.3477 7.76034H87.2113L89.244 14.9706H89.3463L91.3981 7.76034H94.2809L90.4649 18.6396C90.2817 19.168 90.0324 19.6282 89.717 20.0203C89.4059 20.4166 89.0118 20.7213 88.5345 20.9343C88.0572 21.1517 87.4819 21.2603 86.8086 21.2603Z" fill="white"/>
<defs>
<clipPath id="clip0_105_102">
<rect width="24" height="24" fill="white" transform="translate(0 0.5)"/>
</clipPath>
</defs>
</svg>
