<svg width="144" height="31" viewBox="0 0 144 31" fill="none" xmlns="http://www.w3.org/2000/svg">
<path d="M2.24911 13.7656L24.1016 4.76201C26.2587 3.82414 33.5741 0.822942 33.5741 0.822942C33.5741 0.822942 36.9504 -0.490081 36.669 2.69869C36.5753 4.01171 35.825 8.60729 35.0747 13.578L32.73 28.3026C32.73 28.3026 32.5424 30.4597 30.948 30.8349C29.3536 31.21 26.7276 29.5219 26.2587 29.1467C25.8835 28.8653 19.2246 24.6449 16.7861 22.5816C16.1296 22.0189 15.3793 20.8934 16.8799 19.5804C20.2563 16.4854 24.2891 12.6401 26.7276 10.2017C27.853 9.07622 28.9785 6.45018 24.2891 9.63895L11.0651 18.5487C11.0651 18.5487 9.56452 19.4866 6.7509 18.6425C3.93728 17.7984 0.654723 16.673 0.654723 16.673C0.654723 16.673 -1.59617 15.2662 2.24911 13.7656Z" fill="white"/>
<path d="M55.0602 7.85649V21.5587H65.3551V24.893H51.3608V7.85649H55.0602Z" fill="white"/>
<path d="M71.8499 24.893H68.1748V11.3368H71.8499V24.893ZM71.8499 10.3633H68.1748V7.05335H71.8499V10.3633Z" fill="white"/>
<path d="M83.0715 11.2394C88.8395 11.2394 88.9856 16.0827 88.9856 18.0784V24.893H85.3106V18.0784C85.3106 17.0075 85.5296 14.4277 82.0006 14.4277C78.788 14.4277 78.3256 16.4721 78.3256 18.3218V24.893H74.6263V11.2394H78.3256V13.2595H78.496C79.3721 12.0426 80.6134 11.2394 83.0715 11.2394Z" fill="white"/>
<path d="M106.595 11.2394L100.802 16.9588L106.546 24.893H101.946L98.1008 19.5873L95.448 22.2158V24.8686H91.773V7.32106H95.448V17.1779L101.459 11.2394H106.595Z" fill="white"/>
<path d="M112.595 24.893H108.92V11.3368H112.595V24.893ZM112.595 10.3633H108.92V7.05335H112.595V10.3633Z" fill="white"/>
<path d="M122.721 9.73051C121.431 9.73051 121.066 10.0226 120.969 11.2394H125.861V14.2817H120.92V24.893H117.221V14.2817H115.371V11.2394H117.27C117.489 7.32106 118.632 6.42056 121.407 6.42056C123.743 6.42056 126.104 6.76129 126.104 6.76129V9.90087C126.104 9.90087 124.133 9.73051 122.721 9.73051Z" fill="white"/>
<path d="M139.758 11.2638H143.677L136.448 30.1012H132.53L134.526 24.9173H133.212L127.955 11.2638H131.849L135.816 21.5343L139.758 11.2638Z" fill="white"/>
</svg>
