<svg width="36" height="46" viewBox="0 0 36 46" fill="none" xmlns="http://www.w3.org/2000/svg">
<path d="M7.10178 3.76356C9.09956 4.70444 10.4271 5.85156 10.6591 6.032C10.5689 5.50356 10.1564 3.00311 9.89867 1.46933C11.0458 2.26844 13.8169 4.176 14.6933 4.79467C15.0413 3.67333 16.3431 0 16.3431 0C16.3431 0 18.6373 3.68622 18.9982 4.30489C19.5009 3.828 22.2076 0.773333 22.9164 0C23.0582 1.74 23.1871 4.26622 23.2387 4.62711C23.3804 4.44667 24.4502 2.97733 26.1773 1.59822C25.4169 3.10622 25.056 5.15556 24.8756 6.844C23.1356 6.34133 21.3182 6.08356 19.4622 6.08356C15.8662 6.08356 12.4507 7.02444 9.512 8.7C9.00933 7.06311 8.21022 5.05244 7.10178 3.76356ZM34.7227 35.38L33.1244 33.6142C32.6862 38.3573 30.3276 42.4173 26.0613 45.24L25.3782 42.6751C21.7307 45.2916 15.5182 46.98 10.1564 43.9769C10.8396 40.5871 11.3938 37.1458 10.1564 33.0213C7.17911 37.584 4.56267 39.4142 4.56267 39.4142C2.56489 36.0244 2.73244 29.2836 3.32533 27.2858L0 28.3169C0 26.0484 1.64978 21.2538 4.00845 18.5471L1.972 18.2249C3.38978 15.3378 5.47778 12.8631 8.09422 10.9556C7.29511 12.2573 7.29511 15.2604 9.56356 16.4076C8.59689 14.732 8.50667 12.644 9.47333 11.5227C10.5044 10.4013 12.18 10.8138 13.2369 11.6644C12.9147 10.7236 11.9351 9.55067 10.5818 9.46044C13.2369 8.08133 16.3173 7.34667 19.5009 7.34667C20.1196 7.34667 20.7124 7.41111 21.2667 7.43689C22.2076 7.78489 23.5609 9.11244 24.2053 9.96311C24.2053 9.96311 24.2698 8.99644 23.7027 7.84933C27.1827 8.7 28.8582 10.1178 29.5284 10.788C29.6702 12.296 30.1213 13.1724 30.74 14.616C29.6187 13.3787 26.796 11.3164 25.404 10.8524C25.404 10.8524 25.2622 12.1542 24.8111 12.76C22.1044 10.8138 20.8027 10.3111 20.8027 10.3111C17.7996 10.6076 15.9436 11.7804 14.8867 12.6698L15.776 13.4302C14.0102 13.9587 12.8373 15.5182 12.8373 15.5182C12.8373 15.5827 14.4227 15.7889 14.4227 15.7889C14.4227 15.7889 14.2422 17.6449 16.6009 18.8178C18.5987 19.7844 21.4342 18.5858 24.1409 19.6684C22.3751 17.632 21.1636 16.6911 21.1636 16.6911C21.1636 16.6911 20.4547 16.5493 19.952 16.5493C19.3333 16.5493 18.3924 16.6911 17.4258 16.2787C16.9231 16.0982 16.3689 15.7502 15.9564 15.4796C15.9564 15.4796 17.1938 14.1778 19.024 13.92C19.024 13.92 20.6738 14.3582 21.9627 15.3378C22.8133 14.4871 23.7284 14.5387 23.7284 14.5387C23.7284 14.5387 22.8391 15.3893 23.1098 16.3689C24.4116 17.516 25.8164 19.1658 25.8164 19.1658C27.2342 18.3667 30.3533 18.5471 30.9978 19.3076C30.1987 18.2507 29 17.4 28.1107 16.6524C28.0204 16.24 26.9893 14.8867 26.8733 14.7449C26.8733 14.7449 27.8142 15.0671 28.6391 15.776C28.8711 15.428 29.348 15.0671 29.9409 14.9253C30.5596 15.4538 30.7013 16.2529 30.6498 16.3947C30.3791 16.7427 30.0569 16.8973 30.0569 16.8973L31.5907 18.5342L31.7324 17.3227C35.2511 22.3107 37.1587 28.1107 34.7227 35.38ZM28.1236 24.6307V22.0658C28.1236 22.0658 26.9764 21.7178 25.7391 20.7382C23.2644 21.0862 20.2871 23.5996 20.2871 23.5996C20.2871 23.5996 21.3182 25.5071 22.4009 27.608C24.3471 27.8142 27.2342 25.404 28.1236 24.6307ZM30.5982 29.2836C30.5982 29.2836 30.4178 28.2267 29.5413 27.2471L27.6338 27.3116C27.6338 27.3116 25.0173 29.5156 23.4578 29.58C23.4578 29.58 24.3471 31.2298 24.7853 32.0547C25.6747 31.8742 27.1698 31.1653 27.8142 30.4693C27.8142 30.4693 28.2267 31.7969 28.1364 33.3564C29 32.7893 30.2116 31.436 30.5982 29.2836ZM31.3844 20.8027C30.4178 21.6018 29.6187 22.1044 29.6187 22.1044V24.6693C30.3276 25.4298 30.9978 26.0871 31.5262 27.2342C32.5058 25.52 32.2738 22.9551 31.3844 20.8027Z" fill="white"/>
</svg>
