<svg width="256" height="125" viewBox="0 0 256 125" fill="none" xmlns="http://www.w3.org/2000/svg">
<rect x="0.5" y="0.5" width="255" height="124" rx="5.5" fill="#040D1C" stroke="#1D1E25"/>
<path d="M168.213 87.904L167.849 87.914L167.747 88.2635C164.087 100.788 160.588 114.026 157.696 127.165C157.413 126.71 157.042 126.107 156.595 125.364C155.484 123.515 153.903 120.795 152.026 117.317C148.271 110.36 143.333 100.369 138.601 88.2395L138.481 87.9308L138.149 87.9214C125.722 87.5704 112.756 86.7328 100 85.1489C100.326 84.8435 100.754 84.4447 101.28 83.9592C102.627 82.7166 104.619 80.9052 107.198 78.6323C112.356 74.0865 119.862 67.6949 129.249 60.3153L129.506 60.114L129.425 59.7985C126.174 47.0675 123.809 33.2093 123.24 18.801C123.538 19.0854 123.909 19.4373 124.351 19.8526C125.667 21.0891 127.613 22.8874 130.132 25.1365C135.171 29.6347 142.506 35.937 151.695 43.157L151.988 43.387L152.292 43.1725C164.026 34.9002 177.269 26.287 191.568 18.1397C191.369 18.6468 191.116 19.295 190.814 20.076C189.995 22.1895 188.816 25.275 187.371 29.1643C184.481 36.9427 180.53 47.9372 176.282 60.8025L176.164 61.159L176.474 61.3715C187.948 69.2502 200.845 77.3279 214.756 84.8071C214.217 84.868 213.545 84.9421 212.748 85.0269C210.417 85.2746 207.019 85.6131 202.747 85.9755C194.204 86.7004 182.17 87.521 168.213 87.904Z" fill="url(#paint0_linear_23_4)" stroke="#332F2F"/>
<path d="M271.947 62.8767L272.193 63.5603L272.743 63.0864C277.639 58.8732 281.543 53.9276 283.646 48.1547C283.685 48.4817 283.724 48.8439 283.762 49.2395C283.964 51.3154 284.15 54.3129 284.084 57.9892C283.952 65.3431 282.812 75.4043 278.782 86.2349L278.733 86.3668L278.76 86.5049C280.555 95.7049 280.682 102.633 280.363 107.25C280.203 109.558 279.933 111.29 279.704 112.44C279.625 112.836 279.55 113.163 279.487 113.421C275.36 110.111 271.671 108.442 267.63 107.172L267.297 107.067L267.084 107.344C260.728 115.609 252.082 123.626 240.33 130.575C240.404 130.378 240.484 130.159 240.572 129.919C241.049 128.611 241.732 126.67 242.561 124.134C244.217 119.062 246.453 111.608 248.774 102.072L248.879 101.64L248.463 101.485C240.823 98.6484 231.066 94.0214 217.753 85.4032C218.287 85.3112 218.977 85.1879 219.805 85.0308C221.914 84.6308 224.914 84.0121 228.481 83.1366C235.614 81.3864 245.031 78.6071 254.142 74.492L254.386 74.3817L254.43 74.1174C256.446 61.8521 258.157 47.905 259.115 32.538C259.244 32.8024 259.386 33.0959 259.541 33.417C260.335 35.0674 261.46 37.4489 262.779 40.3716C265.418 46.2178 268.834 54.2258 271.947 62.8767Z" fill="url(#paint1_linear_23_4)" stroke="#332F2F"/>
<path d="M166.965 -30.7345C167.34 -30.7999 167.765 -30.871 168.237 -30.9457C170.344 -31.2793 173.396 -31.685 177.17 -31.9721C184.718 -32.5463 195.145 -32.6449 206.661 -30.7447L207.236 -30.6499L207.242 -31.2324C207.292 -35.7059 206.701 -39.9004 205.151 -43.4167C205.365 -43.3077 205.604 -43.1835 205.867 -43.0434C207.155 -42.357 209.014 -41.2898 211.287 -39.7715C215.832 -36.735 222.03 -31.8946 228.622 -24.6883L228.698 -24.6051L228.803 -24.5626C239.972 -20.0211 251.124 -12.9983 260.878 -2.31824C260.285 -2.51923 259.565 -2.72963 258.709 -2.9245C255.779 -3.59142 251.271 -4.07514 244.894 -3.38269L244.139 -3.30066L244.513 -2.63936C249.446 6.07729 254.021 16.4467 257.666 28.7493C257.412 28.4821 257.126 28.1827 256.808 27.8528C255.309 26.2988 253.103 24.0702 250.269 21.3686C244.602 15.9657 236.423 8.66903 226.374 1.09132L226.164 0.932789L225.914 1.01646C217.076 3.97817 206.42 8.62778 193.713 15.7755C193.863 15.4617 194.033 15.1003 194.223 14.6948C194.978 13.0783 196.027 10.7587 197.204 7.94308C199.559 2.31386 202.433 -5.30679 204.5 -13.2581L204.595 -13.6219L204.272 -13.8138C192.915 -20.5583 180.299 -26.6322 166.965 -30.7345Z" fill="url(#paint2_linear_23_4)" stroke="#332F2F"/>
<path d="M133.445 -33.2937L132.929 -32.4925L133.881 -32.5233C142.627 -32.8063 152.228 -32.3329 162.596 -30.7065C162.32 -30.6243 162.019 -30.5338 161.694 -30.4349C159.735 -29.8398 156.899 -28.9415 153.384 -27.7279C146.355 -25.301 136.61 -21.6123 125.742 -16.5645L125.543 -16.4717L125.476 -16.2617C122.624 -7.23483 121.072 3.68633 122.123 16.6963C121.892 16.5671 121.613 16.4103 121.292 16.2265C120.241 15.6249 118.736 14.7348 116.921 13.5823C113.291 11.2768 108.426 7.92418 103.486 3.73537C101.618 2.1504 99.8445 0.484998 98.1188 -1.20559L97.836 -1.48266L97.5014 -1.27088C88.7627 4.26127 80.1215 10.6007 72.2688 17.8086C72.3233 17.6724 72.3809 17.5296 72.4417 17.3806C73.0735 15.8309 74.0492 13.596 75.4218 10.8634C78.1672 5.39792 82.4988 -2.05531 88.84 -9.99657L89.1199 -10.3471L88.8017 -10.6633C85.2763 -14.1657 81.9237 -17.1257 78.6086 -18.6202C78.9145 -18.7947 79.3014 -19.0104 79.7674 -19.261C81.1048 -19.9799 83.0938 -20.9852 85.6916 -22.1252C90.8875 -24.4052 98.5178 -27.2235 108.241 -29.3675L108.352 -29.3919L108.441 -29.4619C119.033 -37.7482 132.298 -45.1932 148.801 -49.9515C147.879 -49.2714 146.747 -48.3836 145.474 -47.2772C142.035 -44.2868 137.568 -39.6974 133.445 -33.2937Z" fill="url(#paint3_linear_23_4)" stroke="#332F2F"/>
<path d="M53.9115 44.9616L53.8423 45.0865L53.8496 45.2292C54.2916 53.927 55.6844 63.5741 58.6328 73.8432C57.9157 73.3104 56.8999 72.5268 55.675 71.5034C53.1699 69.4104 49.7933 66.3167 46.3114 62.3175L45.7789 61.706L45.4716 62.4564C42.1794 70.4944 40.4076 76.8884 39.4585 81.2794C39.2141 82.4102 39.0242 83.4082 38.877 84.2672C36.2543 61.3716 41.3475 41.2451 47.2736 26.6082C50.3977 18.8921 53.7514 12.7064 56.3228 8.4516C57.1781 7.03632 57.9467 5.83491 58.5913 4.86214C58.2877 5.81667 57.9458 6.9584 57.5873 8.27517C56.3839 12.6949 54.9934 19.088 54.2394 26.995L54.1448 27.9873L54.9967 27.4698C58.9926 25.0429 63.0448 23.2004 66.101 21.9641C67.5711 21.3695 68.8088 20.9158 69.6964 20.6055C63.1754 29.4002 58.0022 37.5725 53.9115 44.9616Z" fill="url(#paint4_linear_23_4)" stroke="#332F2F"/>
<path d="M68.7739 98.0215L68.9988 98.4804L69.4527 98.2456C76.5087 94.5941 85.7016 90.5986 97.6256 86.4749C97.3794 86.8409 97.085 87.2836 96.7484 87.7984C95.662 89.4597 94.136 91.8723 92.3747 94.8812C88.8527 100.898 84.3863 109.305 80.6133 118.861L80.5195 119.098L80.6568 119.313C86.1314 127.895 92.6004 136.507 99.9867 143.845C99.8345 143.812 99.6727 143.776 99.5016 143.738C98.1213 143.43 96.1388 142.964 93.7334 142.329C88.9216 141.059 82.4229 139.116 75.6704 136.426L75.1268 136.209L74.9977 136.78C73.3717 143.971 72.5297 151.374 73.0021 158.584C72.7837 158.317 72.5332 158.004 72.2551 157.646C71.1767 156.256 69.6823 154.185 68.0265 151.466C64.7147 146.028 60.7592 138.001 58.1941 127.661L58.1478 127.474L57.9882 127.366C53.283 124.195 49.2189 120.549 46.4373 116.403C46.4827 116.301 46.5479 116.165 46.6381 115.995C46.8672 115.562 47.2576 114.913 47.8934 114.073C49.1649 112.394 51.419 109.954 55.3285 106.972L55.5283 106.82L55.5252 106.569C55.4167 97.6156 56.5461 87.6421 59.5758 76.727C59.6066 76.811 59.6389 76.8983 59.6724 76.989C60.0862 78.1071 60.704 79.7323 61.5209 81.7636C63.1545 85.8261 65.585 91.5145 68.7739 98.0215Z" fill="url(#paint5_linear_23_4)" stroke="#332F2F"/>
<path d="M174.465 193.552C175.264 194.635 175.941 195.379 176.452 195.875C164.941 196.209 153.488 191.548 143.121 184.844L142.967 184.745L142.786 184.768C127.807 186.673 117.152 185.448 110.256 183.758C106.808 182.912 104.298 181.95 102.656 181.204C102.269 181.028 101.93 180.864 101.639 180.717C109.619 179.835 117.275 175.877 124.213 170.553L124.678 170.196L124.253 169.793C117.523 163.41 111.95 157.059 108.06 152.303C106.115 149.925 104.592 147.947 103.555 146.564C103.395 146.352 103.247 146.153 103.111 145.969C114.503 151.291 125.798 155.521 136.36 158.881L136.665 158.978L136.881 158.741C143.365 151.632 148.736 144.122 152.485 138.393C154.359 135.527 155.829 133.105 156.831 131.398C157.129 130.892 157.385 130.448 157.598 130.075C159.214 145.114 161.313 156.807 163.514 165.899L163.588 166.203L163.893 166.27C172.891 168.249 180.4 169.489 185.66 170.235C188.29 170.608 190.359 170.857 191.77 171.014C191.827 171.02 191.883 171.026 191.938 171.032C183.293 174.54 175.352 177.287 168.064 179.405L167.55 179.555L167.734 180.057C170.26 186.964 172.67 191.116 174.465 193.552Z" fill="url(#paint6_linear_23_4)" stroke="#332F2F"/>
<path d="M244.916 153.766L244.98 154.531L245.654 154.163C253.957 149.629 261.99 143.961 268.626 136.925C268.085 137.84 267.439 138.895 266.685 140.068C263.894 144.407 259.622 150.353 253.699 156.765C242.547 168.84 225.551 182.563 201.589 190.348C201.914 190.139 202.255 189.914 202.611 189.671C205.826 187.479 210.259 183.893 215.162 178.305L215.754 177.631L214.869 177.482C209.672 176.607 204.509 174.812 200.637 173.229C198.704 172.439 197.096 171.704 195.973 171.167C195.845 171.105 195.723 171.046 195.607 170.99C195.901 170.942 196.235 170.886 196.605 170.821C198.243 170.537 200.606 170.092 203.514 169.449C209.33 168.164 217.328 166.086 226.058 162.915L226.227 162.853L226.318 162.699C230.921 154.886 235.473 145.153 239.444 133.074C239.524 133.251 239.612 133.448 239.706 133.663C240.191 134.774 240.849 136.382 241.539 138.365C242.919 142.334 244.42 147.792 244.916 153.766Z" fill="url(#paint7_linear_23_4)" stroke="#332F2F"/>
<defs>
<linearGradient id="paint0_linear_23_4" x1="89.6794" y1="37.5527" x2="220.476" y2="97.6612" gradientUnits="userSpaceOnUse">
<stop stop-color="#21413D"/>
<stop offset="1" stop-color="#0F1428"/>
</linearGradient>
<linearGradient id="paint1_linear_23_4" x1="210.309" y1="53.1541" x2="306.934" y2="89.3485" gradientUnits="userSpaceOnUse">
<stop stop-color="#21413D"/>
<stop offset="1" stop-color="#0F1428"/>
</linearGradient>
<linearGradient id="paint2_linear_23_4" x1="170.248" y1="-26.6951" x2="268.965" y2="18.6469" gradientUnits="userSpaceOnUse">
<stop stop-color="#21413D"/>
<stop offset="1" stop-color="#0F1428"/>
</linearGradient>
<linearGradient id="paint3_linear_23_4" x1="64.0871" y1="-19.7178" x2="132.156" y2="41.8844" gradientUnits="userSpaceOnUse">
<stop stop-color="#21413D"/>
<stop offset="1" stop-color="#0F1428"/>
</linearGradient>
<linearGradient id="paint4_linear_23_4" x1="20.5881" y1="20.2093" x2="92.4775" y2="38.7166" gradientUnits="userSpaceOnUse">
<stop stop-color="#21413D"/>
<stop offset="1" stop-color="#0F1428"/>
</linearGradient>
<linearGradient id="paint5_linear_23_4" x1="40.1521" y1="88.2651" x2="122.956" y2="111.685" gradientUnits="userSpaceOnUse">
<stop stop-color="#21413D"/>
<stop offset="1" stop-color="#0F1428"/>
</linearGradient>
<linearGradient id="paint6_linear_23_4" x1="95.9524" y1="152.484" x2="181.607" y2="208.091" gradientUnits="userSpaceOnUse">
<stop stop-color="#21413D"/>
<stop offset="1" stop-color="#0F1428"/>
</linearGradient>
<linearGradient id="paint7_linear_23_4" x1="188.861" y1="151.023" x2="242.306" y2="202.049" gradientUnits="userSpaceOnUse">
<stop stop-color="#21413D"/>
<stop offset="1" stop-color="#0F1428"/>
</linearGradient>
</defs>
</svg>
