<svg width="296" height="208" viewBox="0 0 296 208" fill="none" xmlns="http://www.w3.org/2000/svg">
<path d="M296 180.473H0V180.621H296V180.473Z" fill="#333333"/>
<path d="M266.341 189.998H253.506V190.146H266.341V189.998Z" fill="#333333"/>
<path d="M204.045 186.932H183.852V187.08H204.045V186.932Z" fill="#333333"/>
<path d="M261.143 184.504H234.781V184.652H261.143V184.504Z" fill="#333333"/>
<path d="M102.428 187.488H95.833V187.636H102.428V187.488Z" fill="#333333"/>
<path d="M90.5582 187.488H67.8313V187.636H90.5582V187.488Z" fill="#333333"/>
<path d="M55.654 184.99H39.2556V185.138H55.654V184.99Z" fill="#333333"/>
<path d="M127.913 73.013L128.18 65.2341L123.408 63.6712C123.203 61.035 122.775 58.4209 122.13 55.8568L126.179 52.8968L123.432 45.5916L118.424 45.9941C117.236 43.6404 115.85 41.3925 114.28 39.2749L116.873 34.9474L111.545 29.2583L107.069 31.5493C105.057 29.829 102.906 28.2767 100.64 26.908L101.362 21.9352L94.2583 18.7148L91.0023 22.5272C88.4904 21.7237 85.9163 21.1297 83.3063 20.7512L82.1223 15.8791L74.3197 15.6127L72.7805 20.3901C70.1469 20.5972 67.5351 21.0229 64.9721 21.6629L61.9647 17.6373L54.6594 20.3664L55.062 25.3748C52.7095 26.5803 50.462 27.9803 48.3428 29.5602L43.9857 26.908L38.2729 32.236L40.5639 36.7352C38.8432 38.7377 37.2983 40.8847 35.9463 43.1525L30.9794 42.4066L27.7353 49.5106L31.5714 52.7607C30.7622 55.271 30.1681 57.8456 29.7954 60.4567L24.8641 61.694L24.5977 69.4728L29.3929 71.0357C29.5912 73.6704 30.0171 76.2829 30.6657 78.8442L26.6164 81.8042L29.3692 89.1154L34.3775 88.7128C35.5619 91.0682 36.9485 93.3164 38.5215 95.432L35.9226 99.7596L41.2506 105.449L45.7261 103.158C47.7334 104.878 49.8798 106.428 52.1434 107.793L51.3975 112.76L58.5015 115.986L61.7753 112.174C64.287 112.985 66.861 113.588 69.4713 113.979L70.6553 118.852L78.4578 119.118L79.997 114.341C82.6323 114.131 85.2459 113.705 87.8114 113.068L90.7714 117.093L98.0767 114.364L97.6978 109.356C100.046 108.143 102.293 106.743 104.417 105.17L108.721 107.763L114.434 102.435L112.143 97.9362C113.864 95.9342 115.409 93.7871 116.76 91.5189L121.727 92.2648L124.971 85.1608L121.135 81.9048C121.958 79.3964 122.562 76.8215 122.941 74.2088L127.913 73.013ZM75.3498 98.2144C69.2451 98.0082 63.3386 95.996 58.3776 92.4325C53.4167 88.8689 49.624 83.9141 47.4794 78.1947C45.3348 72.4754 44.9347 66.2484 46.3296 60.3016C47.7245 54.3548 50.8519 48.9553 55.316 44.7861C59.78 40.6169 65.3804 37.8653 71.4085 36.8795C77.4366 35.8936 83.6218 36.7177 89.1815 39.2475C94.7411 41.7774 99.4256 45.8993 102.642 51.0919C105.859 56.2845 107.464 62.3145 107.253 68.4191C106.972 76.6003 103.453 84.3349 97.4705 89.9223C91.4879 95.5097 83.5311 98.4924 75.3498 98.2144Z" fill="#131015"/>
<path d="M261.072 47.2847L263.031 45.4554L262.256 43.9103C262.848 43.2179 263.38 42.4773 263.848 41.6962L265.565 41.9507L266.672 39.4999L265.358 38.381C265.641 37.5144 265.849 36.6251 265.98 35.7229L267.667 35.3026L267.75 32.6149L266.104 32.0821C266.032 31.1718 265.885 30.269 265.666 29.3826L267.057 28.3466L266.11 25.8306L264.387 25.9667C263.972 25.1553 263.491 24.3791 262.949 23.6461L263.843 22.1661L262.001 20.2007L260.462 20.988C259.769 20.3978 259.028 19.8652 258.248 19.3955L258.497 17.6787L256.052 16.5599L254.927 17.88C254.059 17.6097 253.17 17.4117 252.269 17.288L251.849 15.6067L249.161 15.5061L248.622 17.1637C247.715 17.233 246.816 17.3796 245.935 17.6018L244.904 16.2106L242.383 17.1519L242.525 18.8805C241.711 19.2919 240.934 19.7732 240.204 20.3191L238.712 19.4251L236.747 21.2544L237.51 22.764C236.914 23.4544 236.38 24.1952 235.912 24.9781L234.201 24.7235L233.088 27.1744L234.408 28.2992C234.135 29.1645 233.937 30.0519 233.816 30.9514L232.123 31.3717L232.04 34.0594L233.692 34.5922C233.759 35.5026 233.904 36.4057 234.124 37.2917L232.727 38.3218L233.674 40.8378L235.403 40.7075C235.818 41.519 236.299 42.2951 236.841 43.0282L235.947 44.5082L237.789 46.4736L239.328 45.6863C240.02 46.2784 240.76 46.8111 241.542 47.2787L241.287 48.9896L243.738 50.1085L244.863 48.7943C245.732 49.0618 246.621 49.2598 247.521 49.3863L247.941 51.0675L250.629 51.1682L251.168 49.5106C252.075 49.4417 252.974 49.2951 253.855 49.0725L254.886 50.4637L257.407 49.5224L257.271 47.7938C258.083 47.3818 258.857 46.9005 259.586 46.3552L261.072 47.2847ZM247.089 35.9597C246.572 35.4058 246.231 34.7109 246.109 33.9631C245.987 33.2153 246.089 32.4481 246.404 31.7585C246.718 31.069 247.229 30.4881 247.874 30.0894C248.518 29.6907 249.266 29.492 250.023 29.5185C250.78 29.545 251.513 29.7955 252.128 30.2383C252.742 30.6812 253.212 31.2964 253.477 32.0062C253.742 32.716 253.791 33.4885 253.617 34.226C253.443 34.9634 253.054 35.6327 252.5 36.1491C252.132 36.4961 251.699 36.7666 251.226 36.945C250.752 37.1235 250.248 37.2063 249.743 37.1887C249.238 37.171 248.741 37.0533 248.281 36.8424C247.821 36.6314 247.408 36.3314 247.065 35.9597H247.089Z" fill="#131015"/>
<path d="M189.44 127.157L183.319 122.924C182.719 120.72 181.893 118.584 180.856 116.549L182.425 110.392L173.545 100.884L167.293 102.027C165.332 100.852 163.255 99.8818 161.095 99.132L157.294 92.7325L144.27 92.2885L140.044 98.4097C137.842 99.0094 135.708 99.8326 133.674 100.867L127.517 99.2977L118.009 108.178L119.152 114.417C117.978 116.383 117.01 118.464 116.263 120.627L109.863 124.428L109.419 137.452L115.547 141.679C116.137 143.895 116.96 146.042 118.003 148.084L116.417 154.188L125.297 163.695L131.507 162.559C133.483 163.735 135.574 164.707 137.747 165.46L141.541 171.847L154.565 172.297L158.786 166.176C161.008 165.576 163.162 164.751 165.215 163.713L171.337 165.276L180.85 156.396L179.708 150.156C180.885 148.191 181.853 146.108 182.597 143.94L188.996 140.14L189.44 127.157ZM148.918 146.924C146.026 146.825 143.229 145.871 140.88 144.183C138.531 142.495 136.735 140.148 135.72 137.439C134.704 134.73 134.515 131.78 135.176 128.964C135.836 126.147 137.317 123.59 139.431 121.615C141.545 119.64 144.197 118.336 147.052 117.868C149.907 117.401 152.837 117.79 155.47 118.987C158.104 120.184 160.324 122.135 161.849 124.594C163.374 127.052 164.135 129.908 164.037 132.799C163.901 136.677 162.232 140.342 159.397 142.991C156.561 145.639 152.79 147.054 148.912 146.924H148.918Z" fill="#131015"/>
<path d="M203.382 90.252H203.34L193.087 89.9027C192.879 89.8989 192.676 89.8427 192.496 89.7392C192.316 89.6357 192.165 89.4883 192.057 89.3107L189.292 84.6635C187.802 84.1184 186.36 83.4491 184.982 82.6626L180.56 83.4262C180.354 83.464 180.142 83.449 179.943 83.3828C179.744 83.3165 179.566 83.2012 179.423 83.0474L172.42 75.5526C172.273 75.3974 172.169 75.2069 172.117 74.9995C172.065 74.7921 172.067 74.5748 172.124 74.3686L173.243 69.9819C172.55 68.5605 171.983 67.0807 171.55 65.5597L167.092 62.4813C166.919 62.3626 166.779 62.2021 166.685 62.0148C166.591 61.8274 166.546 61.6193 166.553 61.4098L166.903 51.1563C166.91 50.9493 166.967 50.7472 167.07 50.5676C167.174 50.388 167.319 50.2365 167.495 50.1262L172.154 47.3616C172.691 45.875 173.359 44.4387 174.149 43.0696L173.332 38.6118C173.294 38.4049 173.308 38.1917 173.374 37.9919C173.441 37.7922 173.556 37.6124 173.711 37.4693L181.205 30.4718C181.36 30.3243 181.551 30.2191 181.758 30.1662C181.965 30.1134 182.183 30.1146 182.389 30.1699L186.794 31.2947C188.212 30.6012 189.687 30.0327 191.204 29.5957L194.283 25.1379C194.397 24.9609 194.557 24.8176 194.745 24.7228C194.934 24.6281 195.144 24.5855 195.354 24.5992L205.602 24.9544C205.81 24.9588 206.014 25.0153 206.195 25.1187C206.376 25.2221 206.528 25.3691 206.638 25.5464L209.402 30.1995C210.882 30.7427 212.312 31.4121 213.677 32.2005L218.152 31.3776C218.358 31.3393 218.571 31.354 218.769 31.4203C218.968 31.4866 219.147 31.6022 219.289 31.7565L226.292 39.2512C226.438 39.4071 226.542 39.5976 226.594 39.8048C226.645 40.012 226.644 40.229 226.588 40.4352L225.463 44.8338C226.157 46.2524 226.727 47.7279 227.168 49.2442L231.62 52.3226C231.793 52.4412 231.933 52.6017 232.027 52.7891C232.121 52.9764 232.167 53.1845 232.159 53.3941L231.81 63.6416C231.803 63.8494 231.745 64.0524 231.642 64.2329C231.539 64.4134 231.393 64.5661 231.218 64.6776L226.558 67.4422C226.018 68.9255 225.35 70.3595 224.563 71.7283L225.38 76.192C225.419 76.398 225.404 76.6104 225.338 76.8092C225.271 77.0081 225.156 77.1868 225.002 77.3286L217.459 84.332C217.304 84.479 217.114 84.5834 216.906 84.6353C216.699 84.6871 216.482 84.6846 216.275 84.628L211.895 83.5091C210.467 84.1995 208.984 84.7679 207.461 85.2082L204.412 89.66C204.302 89.8357 204.15 89.9817 203.971 90.0849C203.791 90.1882 203.589 90.2456 203.382 90.252ZM193.856 87.4282L202.736 87.7301L205.696 83.4736C205.86 83.2252 206.112 83.0476 206.401 82.9763C208.067 82.5207 209.683 81.9 211.226 81.1234C211.495 80.9938 211.8 80.9624 212.09 81.0346L216.234 82.0942L222.746 76.0262L222 71.7461C221.943 71.4469 221.997 71.1371 222.154 70.8758C223.033 69.4099 223.757 67.8564 224.315 66.2405C224.409 65.9475 224.607 65.6991 224.871 65.5419L229.329 62.9016L229.631 54.0216L225.369 51.0616C225.144 50.9083 224.976 50.6859 224.889 50.4282C224.889 50.3986 224.889 50.363 224.889 50.3275C224.433 48.6912 223.814 47.1046 223.042 45.5915C222.905 45.3207 222.871 45.0092 222.947 44.7154L224.013 40.524L217.945 34.012L213.688 34.7934C213.391 34.8473 213.084 34.7927 212.824 34.6395C211.355 33.7585 209.8 33.0305 208.183 32.4669C208.09 32.4371 208.001 32.3974 207.916 32.3485C207.746 32.242 207.604 32.0957 207.502 31.9222L204.832 27.4526L195.952 27.1448L192.992 31.4131C192.816 31.6633 192.555 31.8419 192.258 31.9163C190.609 32.3669 189.011 32.9837 187.486 33.7574C187.218 33.8945 186.908 33.9282 186.616 33.8522L182.425 32.7866L175.913 38.8546L176.694 43.0992C176.741 43.367 176.701 43.6425 176.582 43.8866L176.523 43.9872C175.642 45.4587 174.918 47.0182 174.362 48.6403C174.264 48.9185 174.071 49.1532 173.817 49.3034L169.359 51.9496L169.058 60.8296L173.326 63.7896C173.569 63.9561 173.745 64.2037 173.823 64.4882C174.267 66.1505 174.884 67.7617 175.664 69.2952C175.707 69.3825 175.74 69.4737 175.765 69.5675C175.809 69.7623 175.809 69.9647 175.765 70.1595L174.699 74.3035L180.767 80.8155L184.994 80.04C185.289 79.986 185.594 80.0406 185.853 80.1939C187.333 81.0733 188.897 81.8012 190.523 82.3666C190.817 82.4537 191.065 82.651 191.216 82.9171L193.856 87.4282ZM199.344 76.1979C199.125 76.1979 198.906 76.1979 198.687 76.1979C193.766 76.1113 189.078 74.0844 185.644 70.5583C182.21 67.0323 180.307 62.2926 180.351 57.3708C180.394 52.4489 182.38 47.7434 185.875 44.2784C189.371 40.8134 194.094 38.8693 199.016 38.8693C203.938 38.8693 208.66 40.8134 212.156 44.2784C215.652 47.7434 217.637 52.4489 217.681 57.3708C217.724 62.2926 215.822 67.0323 212.387 70.5583C208.953 74.0844 204.265 76.1113 199.344 76.1979ZM199.344 41.2166C195.044 41.2908 190.946 43.0608 187.945 46.1413C184.943 49.2218 183.279 53.3634 183.316 57.6644C183.354 61.9655 185.088 66.0778 188.143 69.106C191.197 72.1343 195.324 73.8334 199.625 73.8334C203.927 73.8334 208.054 72.1343 211.108 69.106C214.163 66.0778 215.897 61.9655 215.934 57.6644C215.972 53.3634 214.308 49.2218 211.306 46.1413C208.304 43.0608 204.207 41.2908 199.907 41.2166H199.344Z" fill="#131015"/>
<path d="M226.997 16.4414L222.746 15.3048L221.609 11.0542L223.273 9.39661L225.025 13.0256L228.66 14.7838L226.997 16.4414Z" fill="#333333"/>
<path d="M227.257 13.5999C227.441 13.416 227.587 13.1977 227.686 12.9575C227.786 12.7173 227.837 12.4598 227.837 12.1998C227.837 11.9398 227.786 11.6823 227.686 11.4421C227.587 11.2018 227.441 10.9836 227.257 10.7997C227.073 10.6158 226.855 10.47 226.615 10.3705C226.374 10.271 226.117 10.2198 225.857 10.2198C225.597 10.2198 225.339 10.271 225.099 10.3705C224.859 10.47 224.641 10.6158 224.457 10.7997L226.57 7.62659L229.4 9.05923L230.022 12.0192L227.257 13.5999Z" fill="#333333"/>
<path d="M222.935 9.74002L226.049 6.6261L230.288 7.75682L231.431 12.0015L228.317 15.1154L224.072 13.9728L222.935 9.74002ZM228.589 12.2856C228.866 12.0082 229.055 11.6548 229.131 11.2702C229.207 10.8855 229.168 10.4869 229.018 10.1246C228.868 9.76233 228.614 9.45271 228.287 9.23488C227.961 9.01705 227.578 8.90079 227.186 8.90079C226.794 8.90079 226.41 9.01705 226.084 9.23488C225.758 9.45271 225.504 9.76233 225.354 10.1246C225.204 10.4869 225.164 10.8855 225.241 11.2702C225.317 11.6548 225.506 12.0082 225.783 12.2856C226.158 12.6535 226.663 12.8586 227.188 12.8564C227.714 12.8542 228.217 12.6448 228.589 12.2738V12.2856Z" fill="#4F4F4F"/>
<path d="M53.4103 129.744L55.6895 129.129L56.2992 126.849L55.4112 125.961L54.47 127.909L52.5164 128.85L53.4103 129.744Z" fill="#333333"/>
<path d="M53.2799 128.217C53.1018 128.013 53.0077 127.75 53.0166 127.48C53.0256 127.209 53.1369 126.953 53.3282 126.761C53.5194 126.57 53.7761 126.459 54.0464 126.45C54.3166 126.441 54.5802 126.535 54.7836 126.713L53.6529 125.014L52.0959 125.772L51.7644 127.37L53.2799 128.217Z" fill="#333333"/>
<path d="M55.5887 126.139L53.9193 124.47L51.6401 125.062L51.0481 127.341L52.6879 129.028L54.9671 128.436L55.5887 126.139ZM52.5577 127.507C52.4479 127.41 52.3591 127.293 52.2966 127.161C52.2342 127.029 52.1995 126.886 52.1946 126.74C52.1898 126.594 52.215 126.449 52.2685 126.313C52.3221 126.178 52.403 126.055 52.5062 125.951C52.6093 125.848 52.7325 125.767 52.8682 125.714C53.0039 125.66 53.1491 125.635 53.2949 125.64C53.4407 125.645 53.584 125.679 53.7158 125.742C53.8477 125.804 53.9653 125.893 54.0614 126.003C54.2395 126.206 54.3336 126.47 54.3247 126.74C54.3157 127.01 54.2043 127.267 54.0131 127.458C53.8219 127.65 53.5652 127.761 53.2949 127.77C53.0247 127.779 52.7611 127.685 52.5577 127.507Z" fill="#FCDEDE"/>
<path d="M45.2051 4.80278L47.0995 6.69718C47.3364 6.93002 47.6553 7.06048 47.9875 7.06048C48.3197 7.06048 48.6386 6.93002 48.8755 6.69718C49.107 6.45952 49.2365 6.14091 49.2365 5.80918C49.2365 5.47745 49.107 5.15883 48.8755 4.92118L46.987 3.0327C46.7494 2.80126 46.4308 2.67175 46.099 2.67175C45.7673 2.67175 45.4487 2.80126 45.211 3.0327C44.9792 3.26858 44.8488 3.58578 44.8477 3.91653C44.8466 4.24728 44.9748 4.56535 45.2051 4.80278Z" fill="#FCDEDE"/>
<path d="M43.8732 0.096302C44.3675 -0.0411586 44.8912 -0.0312731 45.38 0.124748C45.8688 0.280768 46.3014 0.576135 46.6247 0.974573C46.948 1.37301 47.1479 1.85718 47.1998 2.36763C47.2518 2.87809 47.1535 3.3926 46.9172 3.848C46.6808 4.30341 46.3166 4.67987 45.8693 4.93118C45.4219 5.18248 44.9109 5.29769 44.3991 5.26265C43.8872 5.22761 43.3966 5.04385 42.9877 4.73393C42.5788 4.42401 42.2693 4.00143 42.0972 3.51806C41.9879 3.17681 41.9472 2.81732 41.9775 2.46028C42.0077 2.10324 42.1082 1.75571 42.2733 1.43768C42.4383 1.11965 42.6647 0.837407 42.9393 0.607197C43.2138 0.376988 43.5312 0.203359 43.8732 0.096302Z" fill="#333333"/>
<path d="M41.813 3.20107L42.0872 3.96436L47.7143 1.9429L47.4401 1.17962L41.813 3.20107Z" fill="#FCDEDE"/>
<path d="M148 207.208C211.393 207.208 262.783 204.207 262.783 200.506C262.783 196.805 211.393 193.805 148 193.805C84.6071 193.805 33.217 196.805 33.217 200.506C33.217 204.207 84.6071 207.208 148 207.208Z" fill="#131015"/>
<path d="M131.69 134.557C132.513 121.297 131.004 97.1844 155.933 100.381C182.65 103.797 175.007 135.043 175.007 135.043L131.69 134.557Z" fill="#333333"/>
<path d="M148.894 126.589C154.904 126.589 159.775 121.717 159.775 115.708C159.775 109.699 154.904 104.827 148.894 104.827C142.885 104.827 138.013 109.699 138.013 115.708C138.013 121.717 142.885 126.589 148.894 126.589Z" fill="white"/>
<path d="M150.327 104.845C145.17 103.969 139.671 107.763 139.12 111.611L159.55 113.494C158.828 109.107 154.411 105.543 150.327 104.845Z" fill="#333333"/>
<path d="M157.224 115.436C157.076 118.283 155.525 120.515 153.76 120.42C151.996 120.326 150.682 117.952 150.8 115.092C150.919 112.233 152.499 110.013 154.264 110.108C156.028 110.202 157.366 112.594 157.224 115.436Z" fill="#333333"/>
<path d="M148.894 127.181C146.625 127.181 144.407 126.508 142.52 125.247C140.633 123.987 139.163 122.195 138.294 120.099C137.426 118.002 137.199 115.695 137.642 113.47C138.084 111.244 139.177 109.2 140.782 107.595C142.386 105.991 144.43 104.898 146.656 104.456C148.881 104.013 151.188 104.24 153.285 105.108C155.381 105.977 157.173 107.447 158.434 109.334C159.694 111.221 160.367 113.439 160.367 115.708C160.364 118.75 159.154 121.666 157.003 123.817C154.852 125.968 151.936 127.178 148.894 127.181ZM148.894 105.425C146.859 105.425 144.869 106.029 143.177 107.159C141.485 108.29 140.166 109.898 139.388 111.778C138.609 113.658 138.406 115.727 138.803 117.723C139.201 119.719 140.181 121.553 141.621 122.991C143.06 124.43 144.894 125.41 146.89 125.806C148.887 126.202 150.956 125.998 152.836 125.218C154.716 124.438 156.322 123.119 157.452 121.426C158.582 119.733 159.184 117.743 159.183 115.708C159.18 112.981 158.095 110.366 156.166 108.438C154.237 106.51 151.621 105.427 148.894 105.425Z" fill="#4F4F4F"/>
<path opacity="0.3" d="M171.97 134.226H171.899C171.861 134.217 171.825 134.202 171.793 134.179C171.762 134.156 171.735 134.128 171.714 134.095C171.694 134.061 171.68 134.025 171.674 133.986C171.669 133.948 171.67 133.908 171.68 133.871C171.68 133.794 173.586 125.766 171.627 117.65C171.608 117.571 171.621 117.488 171.663 117.42C171.705 117.351 171.773 117.302 171.852 117.283C171.93 117.264 172.013 117.277 172.082 117.319C172.151 117.361 172.2 117.429 172.219 117.508C174.214 125.796 172.29 133.93 172.272 134.007C172.255 134.072 172.215 134.13 172.16 134.17C172.105 134.21 172.038 134.229 171.97 134.226Z" fill="white"/>
<path opacity="0.3" d="M170.319 113.198C170.262 113.197 170.206 113.181 170.158 113.151C170.11 113.12 170.071 113.077 170.046 113.026C169.311 111.4 168.367 109.876 167.24 108.492C167.191 108.431 167.168 108.353 167.176 108.276C167.184 108.198 167.222 108.127 167.282 108.077C167.312 108.052 167.347 108.033 167.384 108.021C167.422 108.01 167.461 108.006 167.501 108.01C167.54 108.014 167.578 108.025 167.612 108.044C167.647 108.063 167.677 108.088 167.702 108.119C168.857 109.543 169.826 111.108 170.585 112.778C170.602 112.813 170.612 112.85 170.614 112.889C170.616 112.928 170.61 112.967 170.596 113.003C170.583 113.039 170.563 113.073 170.536 113.101C170.51 113.13 170.478 113.152 170.443 113.168C170.404 113.186 170.362 113.197 170.319 113.198Z" fill="white"/>
<path d="M76.2082 196.765H75.9891C75.2041 196.743 74.4599 196.41 73.9204 195.839C73.3808 195.269 73.09 194.507 73.112 193.722C73.134 192.937 73.4669 192.193 74.0376 191.653C74.6082 191.114 75.3698 190.823 76.1549 190.845H76.2082C77.919 190.845 82.0334 188.767 90.6411 175.198C90.8696 174.838 91.1733 174.531 91.5314 174.299C91.8895 174.067 92.2935 173.915 92.7158 173.854C93.1381 173.793 93.5686 173.823 93.9779 173.944C94.3872 174.065 94.7655 174.272 95.087 174.553C101.847 180.364 109.219 185.422 117.074 189.637C117.437 189.802 117.764 190.04 118.033 190.334C118.303 190.629 118.51 190.975 118.642 191.352C118.774 191.729 118.828 192.129 118.802 192.527C118.776 192.925 118.669 193.314 118.488 193.671C118.308 194.027 118.057 194.343 117.751 194.599C117.445 194.856 117.09 195.048 116.708 195.164C116.326 195.28 115.924 195.317 115.527 195.274C115.13 195.231 114.746 195.107 114.398 194.912C107.098 191.033 100.197 186.444 93.7965 181.213C86.58 192.076 81.2283 196.765 76.2082 196.765Z" fill="#333333"/>
<path d="M94.5249 174.02H94.2703C93.8051 173.953 93.3856 173.703 93.1037 173.327C92.8219 172.951 92.7006 172.479 92.7666 172.013C93.1869 169.053 92.666 158.024 88.9305 149.44C88.7648 149.061 88.7368 148.636 88.8514 148.238C88.9659 147.84 89.2159 147.495 89.558 147.262C97.6684 141.738 114.943 141.075 115.677 141.052C115.91 141.044 116.143 141.082 116.361 141.164C116.58 141.246 116.78 141.37 116.95 141.53C117.121 141.689 117.258 141.881 117.354 142.093C117.451 142.306 117.504 142.535 117.512 142.768C117.52 143.002 117.482 143.234 117.4 143.452C117.318 143.671 117.193 143.871 117.034 144.041C116.874 144.212 116.683 144.349 116.471 144.446C116.258 144.542 116.029 144.596 115.795 144.604C115.636 144.604 100.534 145.196 92.7785 149.458C96.0818 158.006 96.8337 168.656 96.2831 172.51C96.2193 172.931 96.0068 173.314 95.6841 173.591C95.3615 173.869 94.9501 174.021 94.5249 174.02Z" fill="#333333"/>
<path d="M97.5086 171.723C96.3246 168.935 90.9966 169.249 87.8767 171.64C86.2073 172.913 83.9458 176.755 83.7327 178.152C83.6616 178.484 83.6723 178.828 83.7637 179.155C83.8551 179.482 84.0246 179.782 84.2576 180.029C84.4905 180.276 84.78 180.463 85.1011 180.573C85.4221 180.683 85.7652 180.714 86.1007 180.662C88.1431 180.485 90.9433 177.519 90.9433 177.519C89.0785 179.348 91.4879 180.639 95.0873 177.992C97.0527 176.518 98.8287 174.843 97.5086 171.723Z" fill="#4F4F4F"/>
<path d="M199.332 135.339C199.305 135.345 199.277 135.345 199.25 135.339C199.212 135.329 199.176 135.311 199.146 135.287C199.115 135.263 199.089 135.232 199.071 135.198C199.052 135.164 199.04 135.126 199.036 135.087C199.032 135.048 199.037 135.009 199.048 134.972C199.836 132.225 200.694 130.55 201.825 129.644C201.648 129.007 201.681 128.33 201.919 127.714C202.195 126.994 202.682 126.375 203.317 125.938C203.144 125.752 203.022 125.525 202.961 125.278C202.9 125.032 202.902 124.774 202.967 124.529C203.182 123.787 203.625 123.132 204.234 122.658C204.015 122.412 203.894 122.094 203.897 121.764C203.897 119.988 207.159 117.312 210.859 116.803C210.937 116.792 211.017 116.813 211.08 116.861C211.143 116.908 211.185 116.979 211.196 117.058C211.207 117.136 211.186 117.216 211.139 117.279C211.091 117.343 211.02 117.384 210.942 117.395C207.425 117.875 204.477 120.42 204.489 121.764C204.488 121.965 204.564 122.158 204.702 122.303C205.498 121.763 206.394 121.387 207.337 121.197C208.281 121.007 209.252 121.006 210.196 121.196C212.013 121.545 212.753 121.93 212.67 122.481C212.504 123.517 208.639 123.736 206.046 123.428C205.581 123.386 205.129 123.255 204.714 123.043C204.155 123.44 203.74 124.007 203.53 124.659C203.479 124.832 203.479 125.015 203.531 125.188C203.582 125.36 203.683 125.514 203.82 125.63C204.921 125.038 206.466 124.825 208.508 125.275C211.19 125.867 211.291 126.192 211.356 126.388C211.377 126.457 211.378 126.53 211.361 126.6C211.343 126.67 211.307 126.734 211.255 126.784C210.693 127.376 206.578 127.098 204.512 126.589C204.263 126.532 204.022 126.443 203.796 126.323C203.185 126.694 202.714 127.259 202.458 127.927C202.287 128.359 202.24 128.831 202.322 129.289C202.427 129.226 202.536 129.168 202.648 129.117C203.873 128.525 205.353 128.631 207.182 129.413C208.366 129.928 208.958 130.39 209.018 130.857C209.02 130.977 208.99 131.096 208.931 131.2C208.871 131.304 208.785 131.39 208.68 131.449C207.774 132.041 204.613 131.958 202.967 131.082C202.589 130.877 202.274 130.572 202.056 130.2C201.091 131.088 200.309 132.669 199.599 135.149C199.577 135.203 199.541 135.25 199.493 135.283C199.446 135.317 199.39 135.336 199.332 135.339ZM202.541 129.815C202.706 130.122 202.957 130.373 203.263 130.538C204.601 131.248 207.23 131.408 208.212 131.011C208.414 130.928 208.443 130.863 208.443 130.863C208.443 130.863 208.414 130.532 206.963 129.91C205.306 129.2 204.003 129.099 202.92 129.602C202.789 129.665 202.663 129.736 202.541 129.815ZM204.518 125.926L204.666 125.967C206.594 126.412 208.578 126.561 210.551 126.411C209.851 126.152 209.13 125.954 208.396 125.819C207.121 125.474 205.772 125.511 204.518 125.926ZM205.264 122.599C205.538 122.697 205.822 122.761 206.111 122.788C209.071 123.138 211.67 122.729 212.031 122.356C211.93 122.267 211.534 122.013 210.065 121.735C208.413 121.405 206.698 121.714 205.264 122.599Z" fill="#333333"/>
<path d="M122.266 195.776C122.657 195.652 122.526 195.273 122.088 195.273H114.073C98.8108 193.657 88.1489 195.823 94.8681 196.333C101.587 196.842 94.3945 196.735 89.4868 198.594C84.5791 200.453 125.984 200.921 129.743 198.594C133.2 196.451 116.855 197.511 122.266 195.776Z" fill="#333333"/>
<path d="M179.654 198.138L109.917 195.823L107.022 128.205L189.375 130.046L179.654 198.138Z" fill="#4F4F4F"/>
<path d="M131.691 196.842C131.616 196.842 131.544 196.814 131.489 196.764C131.434 196.713 131.4 196.644 131.395 196.569L125.806 128.655C125.801 128.577 125.827 128.5 125.878 128.44C125.928 128.381 126 128.343 126.078 128.336C126.156 128.332 126.233 128.358 126.292 128.409C126.351 128.459 126.389 128.53 126.398 128.608L132.016 196.522C132.019 196.561 132.015 196.6 132.003 196.637C131.991 196.674 131.972 196.709 131.946 196.739C131.921 196.768 131.89 196.793 131.855 196.81C131.821 196.828 131.783 196.839 131.744 196.842H131.691Z" fill="#333333"/>
<path d="M179.654 198.138L198.397 195.285L204.299 132.408L189.375 130.046L179.654 198.138Z" fill="#4F4F4F"/>
<path opacity="0.2" d="M179.654 198.138L198.397 195.285L204.299 132.408L189.375 130.046L179.654 198.138Z" fill="#191C1F"/>
<path d="M115.872 182.794L114.156 142.614C114.113 141.622 114.275 140.631 114.631 139.704C114.986 138.776 115.529 137.931 116.224 137.222C116.919 136.512 117.753 135.952 118.673 135.578C119.593 135.203 120.58 135.021 121.573 135.043L173.705 136.227C174.731 136.25 175.741 136.491 176.668 136.933C177.595 137.375 178.417 138.008 179.081 138.791C179.745 139.574 180.236 140.489 180.52 141.476C180.805 142.463 180.877 143.498 180.732 144.515L174.954 184.972C174.704 186.744 173.809 188.361 172.44 189.514C171.071 190.666 169.325 191.273 167.536 191.218L122.905 189.738C121.073 189.681 119.33 188.934 118.026 187.646C116.721 186.358 115.952 184.625 115.872 182.794Z" fill="#333333"/>
<path d="M168.128 175.003C168.017 175.005 167.907 174.983 167.805 174.939C167.703 174.895 167.611 174.83 167.536 174.748L162.469 169.201L156.998 174.198C156.847 174.337 156.646 174.41 156.441 174.401C156.236 174.392 156.042 174.302 155.903 174.15L150.836 168.603L145.366 173.6C145.214 173.739 145.014 173.812 144.808 173.803C144.603 173.794 144.409 173.704 144.27 173.552L139.197 168.005L133.733 173.002C133.653 173.074 133.56 173.129 133.458 173.164C133.356 173.198 133.248 173.212 133.141 173.203C132.935 173.191 132.742 173.1 132.602 172.949L127.535 167.407L122.07 172.398C121.918 172.537 121.716 172.61 121.51 172.601C121.304 172.593 121.109 172.502 120.969 172.351C120.9 172.276 120.847 172.188 120.812 172.092C120.777 171.996 120.762 171.894 120.767 171.792C120.772 171.69 120.797 171.59 120.841 171.498C120.885 171.406 120.947 171.323 121.023 171.255L127.061 165.732C127.214 165.593 127.415 165.52 127.621 165.529C127.828 165.537 128.022 165.628 128.162 165.779L133.23 171.326L138.694 166.33C138.849 166.194 139.05 166.122 139.256 166.129C139.462 166.14 139.656 166.231 139.795 166.383L144.862 171.93L150.333 166.934C150.407 166.864 150.495 166.81 150.591 166.775C150.686 166.74 150.788 166.724 150.89 166.728C150.992 166.733 151.092 166.757 151.184 166.801C151.277 166.844 151.359 166.905 151.428 166.981L156.495 172.528L161.965 167.532C162.117 167.393 162.317 167.32 162.523 167.329C162.728 167.338 162.922 167.428 163.061 167.579L168.72 173.724C168.821 173.837 168.887 173.977 168.91 174.127C168.933 174.277 168.912 174.43 168.849 174.568C168.786 174.707 168.685 174.823 168.557 174.905C168.429 174.986 168.28 175.028 168.128 175.026V175.003Z" fill="white"/>
<path d="M74.4441 199.577L70.7382 197.807L67.4348 181.722L69.2286 179.751L74.4441 199.577Z" fill="#4F4F4F"/>
<path d="M74.444 199.577L79.3636 196.7L75.1485 183.451L69.2285 179.751L74.444 199.577Z" fill="#4F4F4F"/>
<path opacity="0.2" d="M74.444 199.577L79.3636 196.7L75.1485 183.451L69.2285 179.751L74.444 199.577Z" fill="#191C1F"/>
<path d="M155.104 202.501H154.696C153.911 202.48 153.166 202.148 152.626 201.578C152.086 201.008 151.794 200.246 151.816 199.461C151.837 198.676 152.169 197.932 152.739 197.392C153.309 196.851 154.07 196.56 154.855 196.581C159.414 196.729 169.063 193.929 174.581 188.577C174.914 188.25 175.32 188.007 175.765 187.867C185.113 185.061 188.588 190.726 188.73 190.969L183.638 193.982C183.656 194.02 183.678 194.056 183.704 194.089C183.65 194.012 182.324 192.313 178.109 193.355C171.189 199.665 160.568 202.501 155.104 202.501Z" fill="#333333"/>
<path d="M154.743 206.432L143.963 205.757L143.116 185.878L157.602 186.417L154.743 206.432Z" fill="#4F4F4F"/>
<path d="M154.743 206.432L157.265 203.922L158.828 191.531L157.602 186.417L154.743 206.432Z" fill="#4F4F4F"/>
<path opacity="0.2" d="M154.743 206.432L157.265 203.922L158.828 191.531L157.602 186.417L154.743 206.432Z" fill="#191C1F"/>
<path d="M217.211 198.908C216.824 198.907 216.448 198.78 216.139 198.547C209.983 193.87 201.665 185.564 198.474 177.554C198.426 177.438 198.392 177.317 198.373 177.193C196.817 167.934 195.331 148.452 195.265 147.629C195.248 147.395 195.277 147.161 195.35 146.939C195.423 146.717 195.539 146.511 195.691 146.334C196 145.976 196.437 145.755 196.908 145.719C197.379 145.684 197.845 145.837 198.203 146.145C198.561 146.454 198.782 146.891 198.817 147.362C198.817 147.558 200.339 167.23 201.854 176.412C205.039 184.202 213.694 192.2 218.3 195.717C218.597 195.942 218.815 196.254 218.924 196.61C219.034 196.966 219.029 197.347 218.909 197.7C218.79 198.053 218.563 198.359 218.261 198.576C217.958 198.792 217.595 198.909 217.223 198.908H217.211Z" fill="#333333"/>
<path d="M225.422 199.802C224.048 199.802 222.491 199.18 220.792 197.955C220.411 197.678 220.155 197.262 220.08 196.796C220.006 196.331 220.119 195.856 220.396 195.474C220.672 195.093 221.089 194.836 221.554 194.762C222.019 194.688 222.495 194.801 222.876 195.077C224.344 196.137 225.144 196.261 225.422 196.261C225.893 196.261 226.345 196.449 226.678 196.782C227.011 197.115 227.198 197.566 227.198 198.037C227.198 198.508 227.011 198.96 226.678 199.293C226.345 199.626 225.893 199.813 225.422 199.813V199.802Z" fill="#333333"/>
<path d="M221.29 197.901C223.19 192.26 230.981 193.372 233.668 194.213C235.964 194.88 238.166 195.834 240.222 197.055C241.672 198.002 241.696 199.594 239.76 200.5C237.392 201.613 231.377 200.625 231.377 200.625C234.479 201.98 231.377 204.177 225.925 202.022C224.155 201.323 220.621 199.973 221.29 197.901Z" fill="#4F4F4F"/>
<path d="M202.381 150.044C201.677 154.839 197.704 158.374 194.472 157.9C191.24 157.426 191.11 153.164 191.814 148.345C192.518 143.526 193.797 140.057 197.03 140.531C200.262 141.004 203.086 145.267 202.381 150.044Z" fill="#333333"/>
<path d="M124.249 130.922C124.517 130.922 124.735 130.705 124.735 130.437C124.735 130.169 124.517 129.952 124.249 129.952C123.981 129.952 123.764 130.169 123.764 130.437C123.764 130.705 123.981 130.922 124.249 130.922Z" fill="#333333"/>
<path d="M129.181 133.93C129.181 134.026 129.152 134.12 129.099 134.199C129.045 134.279 128.97 134.342 128.881 134.378C128.792 134.415 128.695 134.425 128.6 134.406C128.506 134.387 128.42 134.341 128.352 134.273C128.284 134.205 128.238 134.119 128.219 134.024C128.2 133.93 128.21 133.833 128.247 133.744C128.283 133.655 128.346 133.579 128.425 133.526C128.505 133.473 128.599 133.444 128.695 133.444C128.824 133.444 128.947 133.495 129.038 133.587C129.129 133.678 129.181 133.801 129.181 133.93Z" fill="#333333"/>
<path d="M129.725 191.295C129.725 191.391 129.697 191.485 129.643 191.564C129.59 191.644 129.514 191.706 129.425 191.743C129.337 191.78 129.239 191.79 129.145 191.771C129.051 191.752 128.964 191.706 128.896 191.638C128.828 191.57 128.782 191.484 128.763 191.389C128.745 191.295 128.754 191.198 128.791 191.109C128.828 191.02 128.89 190.944 128.97 190.891C129.05 190.838 129.144 190.809 129.24 190.809C129.368 190.809 129.492 190.86 129.583 190.951C129.674 191.042 129.725 191.166 129.725 191.295Z" fill="#333333"/>
<path d="M134.171 194.793C134.171 194.889 134.143 194.983 134.089 195.063C134.036 195.143 133.96 195.205 133.871 195.242C133.783 195.279 133.685 195.288 133.591 195.269C133.497 195.251 133.41 195.204 133.342 195.137C133.274 195.069 133.228 194.982 133.21 194.888C133.191 194.794 133.2 194.696 133.237 194.608C133.274 194.519 133.336 194.443 133.416 194.39C133.496 194.336 133.59 194.308 133.686 194.308C133.814 194.308 133.938 194.359 134.029 194.45C134.12 194.541 134.171 194.665 134.171 194.793Z" fill="#333333"/>
<path d="M48.846 200.613C47.9937 200.573 47.1613 200.342 46.4102 199.937C45.6591 199.533 45.0086 198.964 44.5066 198.274C44.482 198.243 44.4641 198.206 44.4541 198.167C44.444 198.128 44.4419 198.088 44.448 198.048C44.4541 198.008 44.4682 197.97 44.4894 197.936C44.5107 197.902 44.5387 197.873 44.5716 197.85C44.6046 197.827 44.6419 197.811 44.6813 197.803C44.7206 197.795 44.7612 197.795 44.8005 197.803C44.8399 197.811 44.8771 197.827 44.9101 197.85C44.943 197.873 44.9709 197.903 44.9921 197.937C46.0991 199.535 48.5441 200.382 49.6097 199.879C49.7164 199.833 49.8115 199.765 49.8879 199.677C49.3495 199.44 48.8777 199.074 48.5143 198.612C48.1508 198.149 47.9069 197.604 47.8041 197.025C47.6679 196.273 47.5614 195.249 48.177 195.119C49.0295 194.93 50.1425 196.984 50.545 198.541C50.618 198.798 50.644 199.067 50.622 199.334C50.9635 199.436 51.3226 199.464 51.6758 199.417C51.8349 199.405 51.9897 199.359 52.1304 199.284C52.2711 199.209 52.3945 199.105 52.4927 198.979C52.1031 198.685 51.7799 198.312 51.5443 197.884C51.3086 197.457 51.1658 196.985 51.1252 196.498C50.9002 194.876 51.0719 194.598 51.2495 194.456C51.3071 194.412 51.3757 194.385 51.4479 194.377C51.52 194.37 51.5928 194.383 51.658 194.414C52.2914 194.681 53.0551 196.978 53.2031 198.28C53.2209 198.416 53.2209 198.553 53.2031 198.689C53.4583 198.787 53.7289 198.839 54.0023 198.843C54.5043 198.862 55.0008 198.732 55.429 198.47C55.3462 198.416 55.2692 198.357 55.1922 198.298C54.6002 197.771 54.3279 196.93 54.4345 195.735C54.5174 194.805 54.7246 194.296 55.0975 194.136C55.2178 194.088 55.3496 194.076 55.4768 194.101C55.6039 194.126 55.7211 194.188 55.8138 194.278C56.2135 194.72 56.5121 195.243 56.689 195.811C56.8659 196.38 56.9167 196.98 56.838 197.57C56.7866 197.816 56.6837 198.048 56.5361 198.251C57.6254 198.44 59.1527 198.132 60.4729 197.807C60.5118 197.797 60.5521 197.796 60.5916 197.802C60.631 197.808 60.6689 197.822 60.703 197.843C60.7371 197.864 60.7667 197.891 60.7902 197.924C60.8137 197.956 60.8306 197.993 60.8399 198.032C60.8492 198.07 60.8508 198.111 60.8446 198.15C60.8383 198.19 60.8243 198.228 60.8035 198.262C60.7826 198.296 60.7552 198.325 60.7228 198.349C60.6905 198.372 60.6538 198.389 60.615 198.399C59.0106 198.795 57.282 199.121 56.0625 198.766C55.4672 199.218 54.7382 199.46 53.9905 199.452C53.6587 199.448 53.3301 199.386 53.0196 199.269C52.8819 199.482 52.6971 199.66 52.4795 199.791C52.2619 199.921 52.0173 200 51.7646 200.021C51.3196 200.078 50.8675 200.04 50.4385 199.908C50.3004 200.141 50.0935 200.325 49.8465 200.435C49.529 200.563 49.1882 200.624 48.846 200.613ZM48.3369 195.711C48.255 196.113 48.2712 196.53 48.3842 196.925C48.4677 197.398 48.6642 197.844 48.9568 198.225C49.2495 198.607 49.6298 198.912 50.0655 199.115C50.0572 198.975 50.0334 198.836 49.9945 198.701C49.5327 197.007 48.6447 195.841 48.3369 195.711ZM51.6343 195.196C51.6382 195.604 51.6718 196.012 51.735 196.415C51.8002 197.137 52.119 197.813 52.6348 198.322C52.4891 197.229 52.1504 196.17 51.6343 195.196ZM55.358 194.681C55.358 194.681 55.133 194.793 55.0502 195.782C54.9673 196.771 55.139 197.451 55.6007 197.848C55.71 197.937 55.8292 198.012 55.9559 198.073C56.1116 197.906 56.2217 197.703 56.2756 197.481C56.381 196.549 56.1293 195.612 55.5711 194.858C55.4468 194.705 55.3758 194.681 55.358 194.681Z" fill="#333333"/>
<path d="M135.491 205.088L137.095 202.306L135.491 199.523H133.774L134.745 202.306L133.774 205.088H135.491Z" fill="#333333"/>
<path d="M133.887 203.756C133.689 203.769 133.49 203.741 133.304 203.674C133.117 203.607 132.946 203.502 132.802 203.367C132.657 203.231 132.542 203.067 132.463 202.885C132.384 202.703 132.344 202.507 132.344 202.309C132.344 202.11 132.384 201.914 132.463 201.732C132.542 201.55 132.657 201.387 132.802 201.251C132.946 201.115 133.117 201.011 133.304 200.944C133.49 200.877 133.689 200.849 133.887 200.861L131.163 200.317L130.435 202.519L131.655 204.378L133.887 203.756Z" fill="#333333"/>
<path d="M134.124 199.523H130.909L129.305 202.306L130.909 205.088H134.124L135.728 202.306L134.124 199.523ZM132.519 203.756C132.232 203.757 131.951 203.673 131.712 203.515C131.473 203.356 131.286 203.13 131.175 202.865C131.064 202.6 131.035 202.308 131.09 202.027C131.145 201.745 131.283 201.486 131.486 201.282C131.688 201.079 131.947 200.94 132.228 200.884C132.51 200.827 132.802 200.856 133.067 200.965C133.332 201.075 133.559 201.261 133.719 201.499C133.879 201.738 133.964 202.019 133.964 202.306C133.964 202.689 133.812 203.058 133.541 203.329C133.27 203.601 132.903 203.755 132.519 203.756Z" fill="#E6C3FF"/>
<path d="M247.391 199.334L246.201 197.268L247.391 195.202H248.664L247.947 197.268L248.664 199.334H247.391Z" fill="#E6C3FF"/>
<path d="M248.581 198.345C248.729 198.356 248.877 198.337 249.017 198.288C249.157 198.239 249.285 198.161 249.394 198.06C249.502 197.959 249.589 197.837 249.648 197.701C249.707 197.566 249.738 197.419 249.738 197.271C249.738 197.123 249.707 196.976 249.648 196.84C249.589 196.704 249.502 196.582 249.394 196.481C249.285 196.38 249.157 196.303 249.017 196.254C248.877 196.205 248.729 196.185 248.581 196.196L250.605 195.794L251.144 197.428L250.244 198.807L248.581 198.345Z" fill="#E6C3FF"/>
<path d="M248.409 195.202H250.777L251.961 197.268L250.777 199.334H248.409L247.225 197.268L248.409 195.202ZM249.593 198.345C249.806 198.346 250.015 198.284 250.193 198.167C250.371 198.049 250.51 197.881 250.593 197.684C250.675 197.488 250.697 197.271 250.656 197.061C250.616 196.852 250.513 196.659 250.363 196.508C250.213 196.357 250.021 196.254 249.811 196.212C249.602 196.17 249.385 196.191 249.188 196.272C248.991 196.353 248.822 196.491 248.704 196.669C248.585 196.846 248.522 197.055 248.522 197.268C248.521 197.41 248.548 197.55 248.602 197.681C248.656 197.812 248.735 197.931 248.835 198.031C248.936 198.132 249.055 198.211 249.186 198.265C249.317 198.319 249.457 198.346 249.599 198.345H249.593Z" fill="#333333"/>
<path d="M203.056 202.081H205.732C206.067 202.079 206.387 201.945 206.624 201.708C206.86 201.47 206.993 201.149 206.993 200.814C206.993 200.479 206.86 200.158 206.624 199.92C206.387 199.683 206.067 199.549 205.732 199.547H203.056C202.72 199.547 202.398 199.681 202.16 199.918C201.923 200.156 201.789 200.478 201.789 200.814C201.789 201.15 201.923 201.472 202.16 201.71C202.398 201.947 202.72 202.081 203.056 202.081Z" fill="#333333"/>
<path d="M198.752 199.689C199 199.238 199.376 198.869 199.831 198.628C200.287 198.387 200.803 198.284 201.316 198.333C201.829 198.382 202.317 198.58 202.718 198.902C203.12 199.225 203.419 199.658 203.578 200.148C203.737 200.639 203.748 201.165 203.612 201.662C203.475 202.159 203.196 202.605 202.808 202.945C202.421 203.285 201.943 203.505 201.433 203.576C200.922 203.648 200.402 203.568 199.936 203.348C199.296 203.018 198.812 202.448 198.59 201.762C198.369 201.077 198.427 200.332 198.752 199.689Z" fill="#E6C3FF"/>
<path d="M199.474 203.347L200.208 203.693L202.757 198.285L202.024 197.939L199.474 203.347Z" fill="#333333"/>
</svg>
