<svg width="256" height="125" viewBox="0 0 256 125" fill="none" xmlns="http://www.w3.org/2000/svg">
<rect x="0.5" y="0.5" width="255" height="124" rx="5.5" fill="#040D1C" stroke="#1D1E25"/>
<path d="M231.156 42.3072C227.528 62.2358 208.23 75.5962 188.295 71.9674C168.366 68.3399 155.014 49.0362 158.641 29.1076C162.27 9.17218 181.567 -4.18138 201.496 -0.55385C221.431 3.07494 234.785 22.3719 231.156 42.3072Z" stroke="#332F2F" stroke-width="1.15763"/>
<path d="M274.16 59.0002L274.338 58.7673L274.255 58.4862C268.24 37.9746 260.812 18.6759 251.351 -2.02788L287.03 -41.2318C304.576 -6.28996 319.65 30.2289 328.414 68.8791C300.9 107.133 271.895 139.676 236.581 169.827C195.372 168.652 156.493 160.61 114.123 148.742L150.006 109.318C172.439 114.603 195.175 118.973 218.155 121.171L218.412 121.195L218.602 121.021C239.072 102.207 257.328 81.0628 274.16 59.0002Z" stroke="#332F2F" stroke-width="1.15763"/>
<path d="M274.16 59.0002L274.338 58.7673L274.255 58.4862C268.24 37.9746 260.812 18.6759 251.351 -2.02788L287.03 -41.2318C304.576 -6.28996 319.65 30.2289 328.414 68.8791C300.9 107.133 271.895 139.676 236.581 169.827C195.372 168.652 156.493 160.61 114.123 148.742L150.006 109.318C172.439 114.603 195.175 118.973 218.155 121.171L218.412 121.195L218.602 121.021C239.072 102.207 257.328 81.0628 274.16 59.0002Z" stroke="#332F2F" stroke-opacity="0.2" stroke-width="1.15763"/>
<path d="M115.636 12.4174L115.457 12.6512L115.541 12.9332C121.62 33.4546 129.177 52.3533 138.464 73.4441L102.772 112.653C84.3074 76.2607 70.4673 41.4131 61.338 2.77746C86.5513 -33.632 119.623 -70.2335 153.21 -98.4052C197.036 -95.3448 235.956 -88.8641 275.689 -77.3366L239.805 -37.9042C217.369 -43.1841 194.616 -47.529 171.648 -49.7516L171.393 -49.7763L171.203 -49.6037C150.641 -30.9072 132.468 -9.61532 115.636 12.4174Z" stroke="#332F2F" stroke-width="1.15763"/>
<path d="M115.636 12.4174L115.457 12.6512L115.541 12.9332C121.62 33.4546 129.177 52.3533 138.464 73.4441L102.772 112.653C84.3074 76.2607 70.4673 41.4131 61.338 2.77746C86.5513 -33.632 119.623 -70.2335 153.21 -98.4052C197.036 -95.3448 235.956 -88.8641 275.689 -77.3366L239.805 -37.9042C217.369 -43.1841 194.616 -47.529 171.648 -49.7516L171.393 -49.7763L171.203 -49.6037C150.641 -30.9072 132.468 -9.61532 115.636 12.4174Z" stroke="#332F2F" stroke-opacity="0.2" stroke-width="1.15763"/>
</svg>
