<svg width="256" height="125" viewBox="0 0 256 125" fill="none" xmlns="http://www.w3.org/2000/svg">
<rect x="0.5" y="0.5" width="255" height="124" rx="5.5" fill="#040D1C" stroke="#1D1E25"/>
<path d="M212.2 15.5C212.347 14.7646 212.347 14.7646 212.347 14.7645L212.347 14.7645L212.346 14.7643L212.342 14.7636L212.33 14.7611L212.281 14.7516C212.239 14.7433 212.177 14.7312 212.096 14.716C211.936 14.6854 211.703 14.6419 211.412 14.5898C210.829 14.4857 210.012 14.3469 209.072 14.2081C207.2 13.9317 204.806 13.65 202.8 13.65C201.854 13.65 200.831 13.6897 199.742 13.732C195.152 13.9101 189.407 14.1331 183.494 11.6102L183.474 11.6015L183.453 11.5941C179.949 10.3362 176.084 7.98826 172.992 5.98205C173.256 5.73299 173.598 5.41918 174.015 5.05594C175.116 4.09541 176.734 2.79108 178.79 1.42461C182.876 -1.29145 188.665 -4.23448 195.552 -5.2355C195.645 -5.20954 195.782 -5.1708 195.959 -5.11908C196.323 -5.01308 196.855 -4.85265 197.526 -4.63622C198.868 -4.20328 200.763 -3.54683 202.969 -2.65472C207.386 -0.867989 213.019 1.8526 217.946 5.59712L218.467 5.99325L218.93 5.53033C222.126 2.33504 225.431 0.843262 227.926 0.147438C228.853 -0.111031 229.669 -0.25975 230.326 -0.344696C229.714 0.406799 228.958 1.43877 228.259 2.6823C226.748 5.36774 225.453 9.13033 226.577 13.1998L226.637 13.415L226.804 13.5627C231.826 17.9879 237.056 23.3913 241.037 27.6967C243.026 29.8477 244.7 31.7213 245.876 33.0567C246.465 33.7244 246.928 34.2574 247.245 34.6233C247.332 34.7238 247.407 34.8117 247.472 34.8863C247.524 34.9474 247.569 34.9996 247.606 35.0424L247.698 35.1503L247.721 35.1775L247.727 35.1842L247.729 35.1858L247.729 35.1862C247.729 35.1862 247.729 35.1862 248.3 34.7L247.729 35.1862L248.13 35.6569L248.668 35.3534C253.99 32.3537 262.625 31.1516 270.621 31.4619C274.603 31.6165 278.382 32.145 281.457 32.9904C284.569 33.8457 286.831 34.9906 287.928 36.2849L289.098 35.3477C284.179 28.8414 277.318 23.3192 271.292 18.4689C269.709 17.1949 268.184 15.9672 266.767 14.7803C266.503 13.863 265.856 12.6222 265.076 11.3091C264.201 9.8356 263.095 8.17226 261.991 6.58421C260.843 4.93438 259.687 3.35404 258.777 2.13687C259.324 2.38216 259.943 2.67229 260.615 3.00833C263.204 4.30313 266.572 6.27121 269.711 8.96883L270.354 9.52119L270.824 8.81603C272.465 6.35464 275.849 3.74046 280.101 2.62315C282.214 4.5285 283.54 6.86678 284.298 8.88834C284.693 9.94305 284.929 10.899 285.043 11.6442C285.1 12.0174 285.124 12.3281 285.125 12.5656C285.126 12.6842 285.12 12.7775 285.112 12.8469C285.111 12.8529 285.111 12.8586 285.11 12.864C284.141 14.0799 283.092 14.9666 282.275 15.5534C281.854 15.8561 281.496 16.0773 281.248 16.2213C281.123 16.2932 281.027 16.3457 280.963 16.3793C280.931 16.3961 280.907 16.4082 280.892 16.4156L280.877 16.4232L280.875 16.4239L280.875 16.424L280.875 16.4242L280.874 16.4243L280.874 16.4244L279.953 16.8665L280.653 17.6128L292.553 30.3128L293.657 31.4915L293.845 29.8872L294.716 22.4461C320.997 60.3595 335.025 104.275 317.093 159.043L305.556 146.297L304.41 145.031L304.253 146.731C300.904 182.98 283.018 214.045 250.655 235.795L245.625 216.907L245.345 215.858L244.463 216.491C216.423 236.604 168.801 249.559 127.643 226.811C132.898 200.662 137.109 173.953 127.518 141.984L127.054 140.438L126.172 141.79C114.652 159.444 103.835 171.804 95.9068 179.745C91.9425 183.716 88.7002 186.581 86.453 188.452C85.3294 189.387 84.4547 190.073 83.8628 190.524C83.7797 190.587 83.7022 190.646 83.6304 190.7C76.2608 177.715 72.828 158.591 71.8113 140.658C70.7757 122.391 72.2551 105.542 74.519 97.9134L74.9183 96.568L73.5779 96.9836L48.764 104.678C48.9969 95.987 52.124 82.8926 57.3866 69.3466C62.8554 55.2697 70.5917 40.8052 79.6654 30.3927L80.5558 29.371L79.2172 29.1592L64.4248 26.8186C74.8891 5.86337 89.9495 -12.2415 108.688 -26.4926C106.509 -21.296 105.629 -14.2158 106.836 -7.27159C108.291 1.10065 112.8 9.38715 121.862 13.9693L124.107 15.1048L122.85 12.9252C119.159 6.52819 117.146 -0.650322 116.975 -7.2819C116.803 -13.9163 118.473 -19.9342 122.06 -24.1012C125.868 -28.2367 130.864 -29.5595 135.949 -29.0414C141.057 -28.5209 146.224 -26.1402 150.23 -22.9157L152.25 -21.29L151.41 -23.743C149.048 -30.64 142.223 -39.188 132.606 -41.0322C152.597 -50.9657 175.573 -56.25 199.3 -56.25C202.388 -56.25 205.363 -56.0434 208.258 -55.8422C209.809 -55.7345 211.337 -55.6284 212.847 -55.5564C216.339 -54.2335 220.656 -51.091 224.761 -47.4044C228.893 -43.6949 232.734 -39.5046 235.202 -36.2471L236.415 -34.6465L236.548 -36.6501L235.8 -36.7C236.307 -36.6662 236.47 -36.6554 236.523 -36.6521C236.548 -36.6505 236.548 -36.6506 236.548 -36.6507L236.548 -36.6514L236.549 -36.6534L236.549 -36.6595L236.55 -36.6798C236.551 -36.6969 236.552 -36.7212 236.554 -36.7524C236.555 -36.7829 236.557 -36.8199 236.558 -36.8634C236.56 -36.9094 236.561 -36.9625 236.563 -37.0225C236.568 -37.2565 236.57 -37.5965 236.559 -38.0304C236.537 -38.8982 236.46 -40.1428 236.243 -41.6681C235.855 -44.3916 235.021 -48.0158 233.25 -51.9894C258.745 -45.4728 271.242 -35.0478 276.379 -29.9592C277.384 -19.6869 280.245 -13.1125 284.151 -4.13847C284.164 -4.10765 284.178 -4.07681 284.191 -4.04594C279.702 -8.39326 273.439 -13.4794 267.023 -18.0604C259.104 -23.7149 250.852 -28.6734 245.337 -30.5115L244.455 -30.8055L244.354 -29.8813L244.354 -29.8802L244.354 -29.8756L244.352 -29.8556L244.342 -29.7738C244.333 -29.7011 244.32 -29.593 244.302 -29.4531C244.266 -29.1732 244.21 -28.7665 244.132 -28.2631C243.976 -27.2556 243.733 -25.8645 243.381 -24.3299C242.733 -21.4966 241.74 -18.2785 240.317 -16.0547C230.109 -23.3621 222.515 -27.9971 217.439 -30.818C214.85 -32.257 212.917 -33.224 211.626 -33.833C210.981 -34.1375 210.496 -34.3524 210.171 -34.4921C210.008 -34.562 209.885 -34.613 209.802 -34.647C209.76 -34.664 209.728 -34.6767 209.706 -34.6854L209.681 -34.6955L209.674 -34.6983L209.671 -34.6992L209.671 -34.6994C209.67 -34.6996 209.67 -34.6997 209.4 -34L209.67 -34.6997L209.504 -34.7639L209.326 -34.7464C185.848 -32.4288 171.31 -23.252 163.017 -16.2739L162.341 -15.7046L163.013 -15.13L168.891 -10.1038C162.476 -7.91331 157.146 -4.07787 153.365 -0.723541C151.345 1.06818 149.759 2.73042 148.676 3.94655C148.134 4.55482 147.718 5.05207 147.436 5.39887C147.295 5.57229 147.187 5.70813 147.114 5.80148C147.1 5.81946 147.088 5.83586 147.076 5.85065C147.058 5.87427 147.043 5.89378 147.031 5.90905L147.009 5.93779L147.003 5.94569L147.002 5.94801L147.001 5.94875C147.001 5.94901 147.001 5.94922 147.6 6.40001L147.001 5.94922L146.85 6.14946V6.40001C146.85 6.79523 147.13 7.00816 147.181 7.04678L147.181 7.0471C147.275 7.11819 147.373 7.16499 147.439 7.19375C147.58 7.25492 147.754 7.30898 147.931 7.35744C148.297 7.45687 148.8 7.56471 149.381 7.67574C150.549 7.89893 152.099 8.14758 153.638 8.37917C155.18 8.61108 156.721 8.82719 157.876 8.98526C158.375 9.05344 158.801 9.11086 159.125 9.15413C159.124 9.58933 159.142 10.2068 159.221 10.9695C159.382 12.5208 159.793 14.6764 160.793 17.1214C162.8 22.0273 167.153 28.0402 176.466 32.6716L176.473 32.6751C184.148 36.3888 193.347 36.0754 202.969 35.7475C203.316 35.7356 203.664 35.7238 204.013 35.7121C214.087 35.3742 224.686 35.1623 235.021 39.2964L235.867 38.1087C228.999 30.1877 223.205 24.394 219.125 20.5773C217.085 18.6689 215.473 17.2548 214.369 16.3161C213.817 15.8468 213.392 15.4963 213.103 15.2623C212.959 15.1454 212.85 15.0575 212.775 14.9985C212.749 14.9776 212.727 14.9604 212.71 14.9467L212.691 14.9315L212.668 14.9142L212.663 14.9096L212.661 14.9083L212.66 14.9079C212.66 14.9077 212.66 14.9077 212.2 15.5ZM212.2 15.5L212.347 14.7646L212.52 14.7992L212.66 14.9077L212.2 15.5ZM266.95 77.4417L266.692 77.666C263.233 80.6737 255.873 86.8793 247.473 92.1358C243.273 94.7641 238.795 97.1663 234.401 98.8118C230.014 100.454 225.658 101.363 221.721 100.946L221.319 100.903L221.133 100.544C216.935 92.3973 212.837 84.6253 209.788 78.8895C208.263 76.0218 207.001 73.6633 206.12 72.0218C205.68 71.2011 205.335 70.5597 205.1 70.1235L204.832 69.6264L204.763 69.4994L204.746 69.4673L204.742 69.4593L204.741 69.4573L204.74 69.4568C204.74 69.4567 204.74 69.4566 205.4 69.1M266.95 77.4417L266.418 56.4823L266.417 56.4822L266.414 56.4811L266.397 56.476C266.382 56.4712 266.358 56.4638 266.327 56.4536C266.302 56.4456 266.271 56.4359 266.237 56.4244C266.182 56.4067 266.116 56.3848 266.039 56.3587C265.785 56.2727 265.408 56.1405 264.924 55.9578C263.957 55.5923 262.564 55.0252 260.872 54.2224C257.486 52.6162 252.912 50.0696 248.166 46.312L247.914 46.1126L247.596 46.1573C237.828 47.5309 227.14 53.1562 218.947 58.3801C214.838 60.9998 211.334 63.534 208.856 65.4134C207.617 66.3533 206.634 67.1301 205.96 67.6725C205.623 67.9438 205.363 68.1565 205.187 68.3019C205.099 68.3745 205.032 68.4304 204.986 68.4682L204.935 68.5115L204.921 68.5227L204.918 68.5257L204.917 68.5265C204.916 68.5267 204.916 68.5269 205.4 69.1M266.95 77.4417V77.1V57.2V56.6438L266.418 56.4824L266.95 77.4417ZM205.4 69.1L204.74 69.4566L204.45 68.9202L204.916 68.5269L205.4 69.1ZM129.166 -80.9619C128.093 -87.4242 126.846 -94.9322 125.835 -100.967C129.43 -98.4678 134.436 -95.0064 139.631 -91.4142C148.317 -85.4082 157.531 -79.0367 161.567 -76.1873L162.41 -75.5922L162.716 -76.5777C164.062 -80.9127 167.257 -90.199 170.121 -98.4156C171.552 -102.521 172.898 -106.354 173.887 -109.162C174.336 -110.436 174.711 -111.499 174.987 -112.28C175.476 -111.493 176.162 -110.389 176.988 -109.06C178.7 -106.304 181.013 -102.58 183.412 -98.7051C188.216 -90.9494 193.359 -82.6111 194.752 -80.2221L195.229 -79.4042L195.916 -80.0559C197.894 -81.9322 204.147 -88.814 210.557 -95.9357C213 -98.6494 215.47 -101.403 217.745 -103.938C220.731 -107.267 223.381 -110.221 225.19 -112.216C225.689 -105.823 226.163 -98.3487 226.564 -91.9903L226.606 -91.3285C227.022 -84.7232 227.359 -79.3864 227.558 -77.9939L227.806 -76.2569L228.89 -77.6366C228.969 -77.7377 229.086 -77.8901 229.238 -78.0897C231.068 -80.4862 238.102 -89.6986 249.011 -98.9131C244.132 -87.7535 241.662 -73.7128 240.351 -61.8655C227.043 -65.624 213.165 -67.55 199 -67.55C171.299 -67.55 144.969 -60.3876 122.241 -47.6115C118.654 -59.0972 113.203 -72.8269 105.788 -82.6535C118.107 -76.431 126.641 -69.5175 129.488 -67.2108C129.814 -66.9469 130.066 -66.7434 130.24 -66.608L131.764 -65.422L131.439 -67.3262C131.109 -69.262 130.221 -74.6062 129.166 -80.9619ZM286.138 113.333L286.161 113.203L286.139 113.074L285.982 113.101C286.139 113.074 286.139 113.073 286.139 113.073L286.139 113.072L286.139 113.07L286.138 113.064L286.134 113.042C286.13 113.024 286.126 112.998 286.119 112.964C286.106 112.897 286.087 112.8 286.06 112.675C286.006 112.424 285.922 112.062 285.799 111.606C285.555 110.694 285.159 109.403 284.546 107.871C283.322 104.811 281.231 100.78 277.759 96.8999L277.525 96.6386L277.175 96.6504L262.375 97.1504L262.115 97.1592L261.917 97.3264L262.4 97.9L261.917 97.3265L261.916 97.3269L261.914 97.329L261.903 97.3377L261.861 97.3733C261.823 97.4049 261.766 97.4522 261.691 97.5141C261.541 97.638 261.319 97.8203 261.032 98.0529C260.458 98.518 259.622 99.1841 258.581 99.9854C256.499 101.589 253.599 103.73 250.325 105.886C247.049 108.043 243.411 110.206 239.851 111.859C236.279 113.517 232.848 114.632 229.969 114.751L228.771 114.8L229.34 115.856L229.362 115.844C229.34 115.856 229.34 115.856 229.34 115.856L229.34 115.856L229.341 115.858L229.345 115.865L229.36 115.893L229.418 116.001L229.643 116.418L230.471 117.956C231.171 119.255 232.139 121.055 233.214 123.055C235.364 127.055 237.939 131.854 239.638 135.052L239.9 135.546L240.449 135.435C243.985 134.718 248.676 132.963 253.102 130.719C257.027 128.728 260.813 126.317 263.424 123.844C263.467 124.008 263.513 124.187 263.562 124.381C263.847 125.52 264.221 127.168 264.574 129.191C265.28 133.241 265.897 138.781 265.551 144.757L265.465 146.246L266.712 145.427C273.573 140.921 283.1 130.247 286.138 113.333ZM292.193 47.1136L291.805 46.1746L291.022 46.8219C287.29 49.907 283.881 52.4202 281.406 54.1616C280.169 55.0322 279.165 55.7094 278.472 56.1684C278.125 56.3979 277.856 56.5728 277.675 56.69C277.584 56.7486 277.515 56.7927 277.469 56.822L277.417 56.8549L277.404 56.8628L277.401 56.8647L277.401 56.8651L277.05 57.0857V57.5V77.4V77.6954L277.251 77.9114C277.736 78.431 278.217 78.9436 278.695 79.4523C283.658 84.7399 288.233 89.613 291.919 97.6138L292.528 98.937L293.251 97.6721C301.018 84.0803 299.132 63.9081 292.193 47.1136Z" stroke="#332F2F" stroke-width="1.5"/>
</svg>
